<?xml version="1.0" encoding="UTF-8" standalone="no"?>
<!DOCTYPE svg PUBLIC "-//W3C//DTD SVG 1.1//EN"
 "http://www.w3.org/Graphics/SVG/1.1/DTD/svg11.dtd">
<!-- Generated by graphviz version 2.42.4 (0)
 -->
<!-- Title: model_graph Pages: 1 -->
<svg width="937pt" height="608pt"
 viewBox="0.00 0.00 937.00 608.00" xmlns="http://www.w3.org/2000/svg" xmlns:xlink="http://www.w3.org/1999/xlink">
<g id="graph0" class="graph" transform="scale(1 1) rotate(0) translate(4 604)">
<title>model_graph</title>
<polygon fill="white" stroke="transparent" points="-4,4 -4,-604 933,-604 933,4 -4,4"/>
<!-- Name -->
<g id="node1" class="node">
<title>Name</title>
<polygon fill="none" stroke="black" points="349,-224 295,-224 295,-188 349,-188 349,-224"/>
<text text-anchor="middle" x="322" y="-202.3" font-family="Helvetica,Arial,sans-serif" font-size="14.00">Name</text>
</g>
<!-- LocalName -->
<g id="node2" class="node">
<title>LocalName</title>
<polygon fill="none" stroke="black" points="483,-130 397,-130 397,-94 483,-94 483,-130"/>
<text text-anchor="middle" x="440" y="-108.3" font-family="Helvetica,Arial,sans-serif" font-size="14.00">LocalName</text>
</g>
<!-- Name&#45;&gt;LocalName -->
<g id="edge1" class="edge">
<title>Name&#45;&gt;LocalName</title>
<path fill="none" stroke="black" d="M343.92,-187.91C362.43,-173.48 389.13,-152.66 409.69,-136.63"/>
<polygon fill="black" stroke="black" points="412.06,-139.22 417.8,-130.31 407.76,-133.7 412.06,-139.22"/>
<text text-anchor="middle" x="376.92" y="-162.86" font-family="Helvetica,Arial,sans-serif" font-size="14.00">1</text>
</g>
<!-- Prefix -->
<g id="node3" class="node">
<title>Prefix</title>
<polygon fill="none" stroke="black" points="347,-130 293,-130 293,-94 347,-94 347,-130"/>
<text text-anchor="middle" x="320" y="-108.3" font-family="Helvetica,Arial,sans-serif" font-size="14.00">Prefix</text>
</g>
<!-- Name&#45;&gt;Prefix -->
<g id="edge2" class="edge">
<title>Name&#45;&gt;Prefix</title>
<path fill="none" stroke="black" d="M321.62,-187.7C321.34,-174.46 320.93,-155.95 320.6,-140.66"/>
<polygon fill="black" stroke="black" points="324.09,-140.15 320.37,-130.23 317.09,-140.3 324.09,-140.15"/>
<text text-anchor="middle" x="311.5" y="-162.96" font-family="Helvetica,Arial,sans-serif" font-size="14.00">0/1</text>
</g>
<!-- NS -->
<g id="node4" class="node">
<title>NS</title>
<polygon fill="none" stroke="black" points="347,-36 293,-36 293,0 347,0 347,-36"/>
<text text-anchor="middle" x="320" y="-14.3" font-family="Helvetica,Arial,sans-serif" font-size="14.00">NS</text>
</g>
<!-- Prefix&#45;&gt;NS -->
<g id="edge3" class="edge">
<title>Prefix&#45;&gt;NS</title>
<path fill="none" stroke="black" d="M320,-93.7C320,-80.46 320,-61.95 320,-46.66"/>
<polygon fill="black" stroke="black" points="323.5,-46.23 320,-36.23 316.5,-46.23 323.5,-46.23"/>
<text text-anchor="middle" x="291" y="-68.96" font-family="Helvetica,Arial,sans-serif" font-size="14.00">refers 0/1</text>
</g>
<!-- Dir -->
<g id="node5" class="node">
<title>Dir</title>
<polygon fill="none" stroke="black" points="241,-224 187,-224 187,-188 241,-188 241,-224"/>
<text text-anchor="middle" x="214" y="-202.3" font-family="Helvetica,Arial,sans-serif" font-size="14.00">Dir</text>
</g>
<!-- Dir&#45;&gt;Name -->
<g id="edge4" class="edge">
<title>Dir&#45;&gt;Name</title>
<path fill="none" stroke="black" d="M241.42,-206C255.91,-206 270.41,-206 284.9,-206"/>
<polygon fill="black" stroke="black" points="284.93,-209.5 294.93,-206 284.93,-202.5 284.93,-209.5"/>
<text text-anchor="middle" x="255.42" y="-209.8" font-family="Helvetica,Arial,sans-serif" font-size="14.00">1..N</text>
</g>
<!-- Depth -->
<g id="node6" class="node">
<title>Depth</title>
<polygon fill="none" stroke="black" points="241,-130 187,-130 187,-94 241,-94 241,-130"/>
<text text-anchor="middle" x="214" y="-108.3" font-family="Helvetica,Arial,sans-serif" font-size="14.00">Depth</text>
</g>
<!-- Dir&#45;&gt;Depth -->
<g id="edge5" class="edge">
<title>Dir&#45;&gt;Depth</title>
<path fill="none" stroke="black" d="M214,-187.7C214,-174.46 214,-155.95 214,-140.66"/>
<polygon fill="black" stroke="black" points="217.5,-140.23 214,-130.23 210.5,-140.23 217.5,-140.23"/>
<text text-anchor="middle" x="210" y="-162.96" font-family="Helvetica,Arial,sans-serif" font-size="14.00">1</text>
</g>
<!-- Attribute -->
<g id="node7" class="node">
<title>Attribute</title>
<polygon fill="none" stroke="black" points="452,-412 384,-412 384,-376 452,-376 452,-412"/>
<text text-anchor="middle" x="418" y="-390.3" font-family="Helvetica,Arial,sans-serif" font-size="14.00">Attribute</text>
</g>
<!-- Attribute&#45;&gt;Name -->
<g id="edge6" class="edge">
<title>Attribute&#45;&gt;Name</title>
<path fill="none" stroke="black" d="M406.9,-375.73C397.43,-360.73 383.7,-338.28 373,-318 358.08,-289.73 343.06,-256.28 333.22,-233.54"/>
<polygon fill="black" stroke="black" points="336.37,-232.01 329.21,-224.21 329.94,-234.78 336.37,-232.01"/>
<text text-anchor="middle" x="360.63" y="-305.46" font-family="Helvetica,Arial,sans-serif" font-size="14.00">1</text>
</g>
<!-- Value -->
<g id="node8" class="node">
<title>Value</title>
<polygon fill="none" stroke="black" points="452,-318 398,-318 398,-282 452,-282 452,-318"/>
<text text-anchor="middle" x="425" y="-296.3" font-family="Helvetica,Arial,sans-serif" font-size="14.00">Value</text>
</g>
<!-- Attribute&#45;&gt;Value -->
<g id="edge7" class="edge">
<title>Attribute&#45;&gt;Value</title>
<path fill="none" stroke="black" d="M419.32,-375.7C420.33,-362.33 421.76,-343.59 422.93,-328.22"/>
<polygon fill="black" stroke="black" points="426.42,-328.46 423.69,-318.23 419.44,-327.93 426.42,-328.46"/>
<text text-anchor="middle" x="417.48" y="-351.05" font-family="Helvetica,Arial,sans-serif" font-size="14.00">1</text>
</g>
<!-- Content -->
<g id="node9" class="node">
<title>Content</title>
<polygon fill="none" stroke="black" points="560,-224 496,-224 496,-188 560,-188 560,-224"/>
<text text-anchor="middle" x="528" y="-202.3" font-family="Helvetica,Arial,sans-serif" font-size="14.00">Content</text>
</g>
<!-- Value&#45;&gt;Content -->
<g id="edge8" class="edge">
<title>Value&#45;&gt;Content</title>
<path fill="none" stroke="black" d="M444.37,-281.7C460.34,-267.43 483.17,-247.04 500.95,-231.16"/>
<polygon fill="black" stroke="black" points="503.59,-233.5 508.71,-224.23 498.92,-228.28 503.59,-233.5"/>
<text text-anchor="middle" x="471.65" y="-256.67" font-family="Helvetica,Arial,sans-serif" font-size="14.00">is</text>
</g>
<!-- Construct -->
<g id="node10" class="node">
<title>Construct</title>
<polygon fill="none" stroke="black" points="246,-318 172,-318 172,-282 246,-282 246,-318"/>
<text text-anchor="middle" x="209" y="-296.3" font-family="Helvetica,Arial,sans-serif" font-size="14.00">Construct</text>
</g>
<!-- Construct&#45;&gt;Dir -->
<g id="edge9" class="edge">
<title>Construct&#45;&gt;Dir</title>
<path fill="none" stroke="black" d="M209.94,-281.7C210.67,-268.33 211.69,-249.59 212.52,-234.22"/>
<polygon fill="black" stroke="black" points="216.02,-234.4 213.06,-224.23 209.03,-234.02 216.02,-234.4"/>
<text text-anchor="middle" x="200.49" y="-257.05" font-family="Helvetica,Arial,sans-serif" font-size="14.00">in 1</text>
</g>
<!-- Contentful -->
<g id="node11" class="node">
<title>Contentful</title>
<polygon fill="none" stroke="black" points="751,-412 673,-412 673,-376 751,-376 751,-412"/>
<text text-anchor="middle" x="712" y="-390.3" font-family="Helvetica,Arial,sans-serif" font-size="14.00">Contentful</text>
</g>
<!-- Contentful&#45;&gt;Content -->
<g id="edge11" class="edge">
<title>Contentful&#45;&gt;Content</title>
<path fill="none" stroke="black" d="M695.02,-375.83C662.16,-342.62 589.78,-269.45 552.01,-231.27"/>
<polygon fill="black" stroke="black" points="554.46,-228.77 544.94,-224.12 549.48,-233.69 554.46,-228.77"/>
<text text-anchor="middle" x="615.99" y="-303.79" font-family="Helvetica,Arial,sans-serif" font-size="14.00">1</text>
</g>
<!-- Contentful&#45;&gt;Construct -->
<g id="edge10" class="edge">
<title>Contentful&#45;&gt;Construct</title>
<path fill="none" stroke="black" d="M672.95,-385.86C581.77,-369.18 355.12,-327.73 256.31,-309.65"/>
<polygon fill="black" stroke="black" points="256.78,-306.18 246.31,-307.82 255.52,-313.07 256.78,-306.18"/>
<text text-anchor="middle" x="454.48" y="-350.61" font-family="Helvetica,Arial,sans-serif" font-size="14.00">is</text>
</g>
<!-- CDATA -->
<g id="node12" class="node">
<title>CDATA</title>
<polygon fill="none" stroke="black" points="606.5,-600 545.5,-600 545.5,-564 606.5,-564 606.5,-600"/>
<text text-anchor="middle" x="576" y="-578.3" font-family="Helvetica,Arial,sans-serif" font-size="14.00">CDATA</text>
</g>
<!-- CDATA&#45;&gt;Contentful -->
<g id="edge12" class="edge">
<title>CDATA&#45;&gt;Contentful</title>
<path fill="none" stroke="black" d="M588.55,-563.83C612.64,-530.89 665.45,-458.67 693.55,-420.23"/>
<polygon fill="black" stroke="black" points="696.4,-422.26 699.48,-412.12 690.75,-418.13 696.4,-422.26"/>
<text text-anchor="middle" x="638.94" y="-491.88" font-family="Helvetica,Arial,sans-serif" font-size="14.00">is</text>
</g>
<!-- Comment -->
<g id="node13" class="node">
<title>Comment</title>
<polygon fill="none" stroke="black" points="733.5,-600 656.5,-600 656.5,-564 733.5,-564 733.5,-600"/>
<text text-anchor="middle" x="695" y="-578.3" font-family="Helvetica,Arial,sans-serif" font-size="14.00">Comment</text>
</g>
<!-- Comment&#45;&gt;Contentful -->
<g id="edge13" class="edge">
<title>Comment&#45;&gt;Contentful</title>
<path fill="none" stroke="black" d="M696.57,-563.83C699.53,-531.45 705.96,-461.09 709.51,-422.2"/>
<polygon fill="black" stroke="black" points="713.01,-422.4 710.43,-412.12 706.04,-421.76 713.01,-422.4"/>
<text text-anchor="middle" x="698.5" y="-491.79" font-family="Helvetica,Arial,sans-serif" font-size="14.00">is</text>
</g>
<!-- Text -->
<g id="node14" class="node">
<title>Text</title>
<polygon fill="none" stroke="black" points="825,-506 771,-506 771,-470 825,-470 825,-506"/>
<text text-anchor="middle" x="798" y="-484.3" font-family="Helvetica,Arial,sans-serif" font-size="14.00">Text</text>
</g>
<!-- Text&#45;&gt;Contentful -->
<g id="edge14" class="edge">
<title>Text&#45;&gt;Contentful</title>
<path fill="none" stroke="black" d="M781.82,-469.7C768.61,-455.56 749.77,-435.41 734.99,-419.59"/>
<polygon fill="black" stroke="black" points="737.49,-417.14 728.1,-412.23 732.38,-421.92 737.49,-417.14"/>
<text text-anchor="middle" x="749.75" y="-444.53" font-family="Helvetica,Arial,sans-serif" font-size="14.00">is</text>
</g>
<!-- PI -->
<g id="node15" class="node">
<title>PI</title>
<polygon fill="none" stroke="black" points="929,-506 875,-506 875,-470 929,-470 929,-506"/>
<text text-anchor="middle" x="902" y="-484.3" font-family="Helvetica,Arial,sans-serif" font-size="14.00">PI</text>
</g>
<!-- PI&#45;&gt;Contentful -->
<g id="edge15" class="edge">
<title>PI&#45;&gt;Contentful</title>
<path fill="none" stroke="black" d="M874.78,-473.82C843.98,-458.9 793.34,-434.39 756.71,-416.65"/>
<polygon fill="black" stroke="black" points="757.78,-413.28 747.26,-412.07 754.73,-419.58 757.78,-413.28"/>
<text text-anchor="middle" x="805.99" y="-446.73" font-family="Helvetica,Arial,sans-serif" font-size="14.00">is</text>
</g>
<!-- Declaration -->
<g id="node16" class="node">
<title>Declaration</title>
<polygon fill="none" stroke="black" points="774.5,-36 689.5,-36 689.5,0 774.5,0 774.5,-36"/>
<text text-anchor="middle" x="732" y="-14.3" font-family="Helvetica,Arial,sans-serif" font-size="14.00">Declaration</text>
</g>
<!-- Declaration&#45;&gt;Contentful -->
<g id="edge16" class="edge">
<title>Declaration&#45;&gt;Contentful</title>
<path fill="none" stroke="black" d="M731.08,-36.14C727.91,-95.56 717.35,-293.02 713.46,-365.77"/>
<polygon fill="black" stroke="black" points="709.95,-365.79 712.91,-375.96 716.94,-366.16 709.95,-365.79"/>
<text text-anchor="middle" x="717" y="-209.8" font-family="Helvetica,Arial,sans-serif" font-size="14.00">is</text>
</g>
<!-- DOCTYPE -->
<g id="node17" class="node">
<title>DOCTYPE</title>
<polygon fill="none" stroke="black" points="907.5,-36 824.5,-36 824.5,0 907.5,0 907.5,-36"/>
<text text-anchor="middle" x="866" y="-14.3" font-family="Helvetica,Arial,sans-serif" font-size="14.00">DOCTYPE</text>
</g>
<!-- DOCTYPE&#45;&gt;Contentful -->
<g id="edge17" class="edge">
<title>DOCTYPE&#45;&gt;Contentful</title>
<path fill="none" stroke="black" d="M860.57,-36.23C845.72,-82.66 802.3,-213.92 754,-318 746.22,-334.77 736.14,-352.87 727.8,-367.09"/>
<polygon fill="black" stroke="black" points="724.71,-365.43 722.61,-375.81 730.73,-369 724.71,-365.43"/>
<text text-anchor="middle" x="794.75" y="-212.91" font-family="Helvetica,Arial,sans-serif" font-size="14.00">is</text>
</g>
<!-- Contentless -->
<g id="node18" class="node">
<title>Contentless</title>
<polygon fill="none" stroke="black" points="334,-412 246,-412 246,-376 334,-376 334,-412"/>
<text text-anchor="middle" x="290" y="-390.3" font-family="Helvetica,Arial,sans-serif" font-size="14.00">Contentless</text>
</g>
<!-- Contentless&#45;&gt;Construct -->
<g id="edge18" class="edge">
<title>Contentless&#45;&gt;Construct</title>
<path fill="none" stroke="black" d="M274.76,-375.7C262.43,-361.69 244.9,-341.77 231.03,-326.03"/>
<polygon fill="black" stroke="black" points="233.4,-323.42 224.17,-318.23 228.15,-328.05 233.4,-323.42"/>
<text text-anchor="middle" x="244.51" y="-350.82" font-family="Helvetica,Arial,sans-serif" font-size="14.00">is</text>
</g>
<!-- Entity -->
<g id="node19" class="node">
<title>Entity</title>
<polygon fill="none" stroke="black" points="194,-506 140,-506 140,-470 194,-470 194,-506"/>
<text text-anchor="middle" x="167" y="-484.3" font-family="Helvetica,Arial,sans-serif" font-size="14.00">Entity</text>
</g>
<!-- Entity&#45;&gt;Contentless -->
<g id="edge19" class="edge">
<title>Entity&#45;&gt;Contentless</title>
<path fill="none" stroke="black" d="M189.85,-469.91C209.23,-455.41 237.22,-434.48 258.69,-418.42"/>
<polygon fill="black" stroke="black" points="260.95,-421.1 266.86,-412.31 256.75,-415.5 260.95,-421.1"/>
<text text-anchor="middle" x="223.6" y="-444.72" font-family="Helvetica,Arial,sans-serif" font-size="14.00">is</text>
</g>
<!-- EntityCode -->
<g id="node20" class="node">
<title>EntityCode</title>
<polygon fill="none" stroke="black" points="195.5,-412 112.5,-412 112.5,-376 195.5,-376 195.5,-412"/>
<text text-anchor="middle" x="154" y="-390.3" font-family="Helvetica,Arial,sans-serif" font-size="14.00">EntityCode</text>
</g>
<!-- Entity&#45;&gt;EntityCode -->
<g id="edge20" class="edge">
<title>Entity&#45;&gt;EntityCode</title>
<path fill="none" stroke="black" d="M164.55,-469.7C162.67,-456.33 160.02,-437.59 157.85,-422.22"/>
<polygon fill="black" stroke="black" points="161.3,-421.64 156.43,-412.23 154.37,-422.62 161.3,-421.64"/>
<text text-anchor="middle" x="139.54" y="-445.05" font-family="Helvetica,Arial,sans-serif" font-size="14.00">[has] 1</text>
</g>
<!-- EmptyTag -->
<g id="node21" class="node">
<title>EmptyTag</title>
<polygon fill="none" stroke="black" points="332,-506 254,-506 254,-470 332,-470 332,-506"/>
<text text-anchor="middle" x="293" y="-484.3" font-family="Helvetica,Arial,sans-serif" font-size="14.00">EmptyTag</text>
</g>
<!-- EmptyTag&#45;&gt;Attribute -->
<g id="edge22" class="edge">
<title>EmptyTag&#45;&gt;Attribute</title>
<path fill="none" stroke="black" d="M316.22,-469.91C335.91,-455.41 364.36,-434.48 386.18,-418.42"/>
<polygon fill="black" stroke="black" points="388.5,-421.06 394.48,-412.31 384.35,-415.42 388.5,-421.06"/>
<text text-anchor="middle" x="343.1" y="-444.72" font-family="Helvetica,Arial,sans-serif" font-size="14.00">1..A</text>
</g>
<!-- EmptyTag&#45;&gt;Contentless -->
<g id="edge21" class="edge">
<title>EmptyTag&#45;&gt;Contentless</title>
<path fill="none" stroke="black" d="M292.44,-469.7C292,-456.46 291.4,-437.95 290.9,-422.66"/>
<polygon fill="black" stroke="black" points="294.39,-422.11 290.56,-412.23 287.39,-422.34 294.39,-422.11"/>
<text text-anchor="middle" x="286.51" y="-444.96" font-family="Helvetica,Arial,sans-serif" font-size="14.00">is</text>
</g>
<!-- Tag -->
<g id="node22" class="node">
<title>Tag</title>
<polygon fill="none" stroke="black" points="442,-506 388,-506 388,-470 442,-470 442,-506"/>
<text text-anchor="middle" x="415" y="-484.3" font-family="Helvetica,Arial,sans-serif" font-size="14.00">Tag</text>
</g>
<!-- Tag&#45;&gt;Name -->
<g id="edge25" class="edge">
<title>Tag&#45;&gt;Name</title>
<path fill="none" stroke="black" d="M435.18,-469.93C449.92,-456.05 468.71,-435.05 477,-412 496.56,-357.63 507.69,-330.95 477,-282 451.31,-241.02 396.18,-221.88 359.09,-213.35"/>
<polygon fill="black" stroke="black" points="359.65,-209.89 349.14,-211.21 358.18,-216.73 359.65,-209.89"/>
<text text-anchor="middle" x="472.98" y="-285.77" font-family="Helvetica,Arial,sans-serif" font-size="14.00">1</text>
</g>
<!-- Tag&#45;&gt;Attribute -->
<g id="edge24" class="edge">
<title>Tag&#45;&gt;Attribute</title>
<path fill="none" stroke="black" d="M415.56,-469.7C416,-456.46 416.6,-437.95 417.1,-422.66"/>
<polygon fill="black" stroke="black" points="420.61,-422.34 417.44,-412.23 413.61,-422.11 420.61,-422.34"/>
<text text-anchor="middle" x="403.99" y="-444.96" font-family="Helvetica,Arial,sans-serif" font-size="14.00">1..A</text>
</g>
<!-- Tag&#45;&gt;Contentless -->
<g id="edge23" class="edge">
<title>Tag&#45;&gt;Contentless</title>
<path fill="none" stroke="black" d="M391.78,-469.91C372.09,-455.41 343.64,-434.48 321.82,-418.42"/>
<polygon fill="black" stroke="black" points="323.65,-415.42 313.52,-412.31 319.5,-421.06 323.65,-415.42"/>
<text text-anchor="middle" x="347.4" y="-429.72" font-family="Helvetica,Arial,sans-serif" font-size="14.00">is</text>
</g>
<!-- Tag&#45;&gt;Tag -->
<g id="edge26" class="edge">
<title>Tag&#45;&gt;Tag:n</title>
<path fill="none" stroke="black" d="M442.23,-473.62C466.34,-467.29 492,-474.02 492,-497 492,-526.33 450.2,-529.19 423.18,-512.2"/>
<polygon fill="black" stroke="black" points="425.08,-509.25 415,-506 420.85,-514.83 425.08,-509.25"/>
<text text-anchor="middle" x="454.74" y="-477.42" font-family="Helvetica,Arial,sans-serif" font-size="14.00">0..C</text>
</g>
<!-- Internal -->
<g id="node23" class="node">
<title>Internal</title>
<polygon fill="none" stroke="black" points="62,-412 0,-412 0,-376 62,-376 62,-412"/>
<text text-anchor="middle" x="31" y="-390.3" font-family="Helvetica,Arial,sans-serif" font-size="14.00">Internal</text>
</g>
<!-- Internal&#45;&gt;Construct -->
<g id="edge27" class="edge">
<title>Internal&#45;&gt;Construct</title>
<path fill="none" stroke="black" d="M62.01,-376.97C91.02,-361.98 134.59,-339.46 166.77,-322.83"/>
<polygon fill="black" stroke="black" points="168.66,-325.79 175.94,-318.09 165.45,-319.57 168.66,-325.79"/>
<text text-anchor="middle" x="113.86" y="-351.39" font-family="Helvetica,Arial,sans-serif" font-size="14.00">is</text>
</g>
<!-- CloseTag -->
<g id="node24" class="node">
<title>CloseTag</title>
<polygon fill="none" stroke="black" points="267,-600 193,-600 193,-564 267,-564 267,-600"/>
<text text-anchor="middle" x="230" y="-578.3" font-family="Helvetica,Arial,sans-serif" font-size="14.00">CloseTag</text>
</g>
<!-- CloseTag&#45;&gt;Tag -->
<g id="edge29" class="edge">
<title>CloseTag&#45;&gt;Tag</title>
<path fill="none" stroke="black" d="M264.36,-563.91C296.79,-547.78 345.26,-523.68 378.4,-507.2"/>
<polygon fill="black" stroke="black" points="380.34,-510.14 387.74,-502.56 377.23,-503.88 380.34,-510.14"/>
<text text-anchor="middle" x="317.88" y="-537.12" font-family="Helvetica,Arial,sans-serif" font-size="14.00">for</text>
</g>
<!-- CloseTag&#45;&gt;Internal -->
<g id="edge28" class="edge">
<title>CloseTag&#45;&gt;Internal</title>
<path fill="none" stroke="black" d="M197.64,-563.94C173.35,-550.21 140.1,-529.41 115,-506 87.42,-480.28 62.25,-444.67 46.8,-420.78"/>
<polygon fill="black" stroke="black" points="49.69,-418.81 41.37,-412.25 43.78,-422.56 49.69,-418.81"/>
<text text-anchor="middle" x="103.26" y="-503.28" font-family="Helvetica,Arial,sans-serif" font-size="14.00">is</text>
</g>
</g>
</svg>
