<?xml version="1.0" encoding="UTF-8" standalone="no"?>
<!DOCTYPE svg PUBLIC "-//W3C//DTD SVG 1.1//EN"
 "http://www.w3.org/Graphics/SVG/1.1/DTD/svg11.dtd">
<!-- Generated by graphviz version 2.42.4 (0)
 -->
<!-- Title: model_graph Pages: 1 -->
<svg width="669pt" height="584pt"
 viewBox="0.00 0.00 668.50 584.00" xmlns="http://www.w3.org/2000/svg" xmlns:xlink="http://www.w3.org/1999/xlink">
<g id="graph0" class="graph" transform="scale(1 1) rotate(0) translate(4 580)">
<title>model_graph</title>
<polygon fill="white" stroke="transparent" points="-4,4 -4,-580 664.5,-580 664.5,4 -4,4"/>
<!-- Name -->
<g id="node1" class="node">
<title>Name</title>
<polygon fill="none" stroke="black" points="591.5,-252 537.5,-252 537.5,-216 591.5,-216 591.5,-252"/>
<text text-anchor="middle" x="564.5" y="-230.3" font-family="Helvetica,Arial,sans-serif" font-size="14.00">Name</text>
</g>
<!-- LocalName -->
<g id="node2" class="node">
<title>LocalName</title>
<polygon fill="none" stroke="black" points="570.5,-144 484.5,-144 484.5,-108 570.5,-108 570.5,-144"/>
<text text-anchor="middle" x="527.5" y="-122.3" font-family="Helvetica,Arial,sans-serif" font-size="14.00">LocalName</text>
</g>
<!-- Name&#45;&gt;LocalName -->
<g id="edge1" class="edge">
<title>Name&#45;&gt;LocalName</title>
<path fill="none" stroke="black" d="M554,-215.68C554,-215.68 554,-154.05 554,-154.05"/>
<polygon fill="black" stroke="black" points="557.5,-154.05 554,-144.05 550.5,-154.05 557.5,-154.05"/>
<text text-anchor="middle" x="550" y="-188.66" font-family="Helvetica,Arial,sans-serif" font-size="14.00">1</text>
</g>
<!-- Prefix -->
<g id="node3" class="node">
<title>Prefix</title>
<polygon fill="none" stroke="black" points="660.5,-144 606.5,-144 606.5,-108 660.5,-108 660.5,-144"/>
<text text-anchor="middle" x="633.5" y="-122.3" font-family="Helvetica,Arial,sans-serif" font-size="14.00">Prefix</text>
</g>
<!-- Name&#45;&gt;Prefix -->
<g id="edge2" class="edge">
<title>Name&#45;&gt;Prefix</title>
<path fill="none" stroke="black" d="M581,-215.68C581,-184.87 581,-126 581,-126 581,-126 596.33,-126 596.33,-126"/>
<polygon fill="black" stroke="black" points="596.33,-129.5 606.33,-126 596.33,-122.5 596.33,-129.5"/>
<text text-anchor="middle" x="571.5" y="-166.98" font-family="Helvetica,Arial,sans-serif" font-size="14.00">0/1</text>
</g>
<!-- NS -->
<g id="node4" class="node">
<title>NS</title>
<polygon fill="none" stroke="black" points="660.5,-36 606.5,-36 606.5,0 660.5,0 660.5,-36"/>
<text text-anchor="middle" x="633.5" y="-14.3" font-family="Helvetica,Arial,sans-serif" font-size="14.00">NS</text>
</g>
<!-- Prefix&#45;&gt;NS -->
<g id="edge3" class="edge">
<title>Prefix&#45;&gt;NS</title>
<path fill="none" stroke="black" d="M633.5,-107.68C633.5,-107.68 633.5,-46.05 633.5,-46.05"/>
<polygon fill="black" stroke="black" points="637,-46.05 633.5,-36.05 630,-46.05 637,-46.05"/>
<text text-anchor="middle" x="604.5" y="-80.66" font-family="Helvetica,Arial,sans-serif" font-size="14.00">refers 0/1</text>
</g>
<!-- Dir -->
<g id="node5" class="node">
<title>Dir</title>
<polygon fill="none" stroke="black" points="501.5,-360 447.5,-360 447.5,-324 501.5,-324 501.5,-360"/>
<text text-anchor="middle" x="474.5" y="-338.3" font-family="Helvetica,Arial,sans-serif" font-size="14.00">Dir</text>
</g>
<!-- Dir&#45;&gt;Name -->
<g id="edge4" class="edge">
<title>Dir&#45;&gt;Name</title>
<path fill="none" stroke="black" d="M501.81,-342C522.66,-342 547.83,-342 547.83,-342 547.83,-342 547.83,-262.32 547.83,-262.32"/>
<polygon fill="black" stroke="black" points="551.33,-262.32 547.83,-252.32 544.33,-262.32 551.33,-262.32"/>
<text text-anchor="middle" x="535.33" y="-328.97" font-family="Helvetica,Arial,sans-serif" font-size="14.00">1..N</text>
</g>
<!-- Depth -->
<g id="node6" class="node">
<title>Depth</title>
<polygon fill="none" stroke="black" points="501.5,-252 447.5,-252 447.5,-216 501.5,-216 501.5,-252"/>
<text text-anchor="middle" x="474.5" y="-230.3" font-family="Helvetica,Arial,sans-serif" font-size="14.00">Depth</text>
</g>
<!-- Dir&#45;&gt;Depth -->
<g id="edge5" class="edge">
<title>Dir&#45;&gt;Depth</title>
<path fill="none" stroke="black" d="M474.5,-323.68C474.5,-323.68 474.5,-262.05 474.5,-262.05"/>
<polygon fill="black" stroke="black" points="478,-262.05 474.5,-252.05 471,-262.05 478,-262.05"/>
<text text-anchor="middle" x="470.5" y="-296.66" font-family="Helvetica,Arial,sans-serif" font-size="14.00">1</text>
</g>
<!-- Attribute -->
<g id="node7" class="node">
<title>Attribute</title>
<polygon fill="none" stroke="black" points="568.5,-468 500.5,-468 500.5,-432 568.5,-432 568.5,-468"/>
<text text-anchor="middle" x="534.5" y="-446.3" font-family="Helvetica,Arial,sans-serif" font-size="14.00">Attribute</text>
</g>
<!-- Attribute&#45;&gt;Name -->
<g id="edge6" class="edge">
<title>Attribute&#45;&gt;Name</title>
<path fill="none" stroke="black" d="M558.17,-431.96C558.17,-431.96 558.17,-262.15 558.17,-262.15"/>
<polygon fill="black" stroke="black" points="561.67,-262.15 558.17,-252.15 554.67,-262.15 561.67,-262.15"/>
<text text-anchor="middle" x="554.17" y="-350.85" font-family="Helvetica,Arial,sans-serif" font-size="14.00">1</text>
</g>
<!-- Content -->
<g id="node8" class="node">
<title>Content</title>
<polygon fill="none" stroke="black" points="230.5,-360 166.5,-360 166.5,-324 230.5,-324 230.5,-360"/>
<text text-anchor="middle" x="198.5" y="-338.3" font-family="Helvetica,Arial,sans-serif" font-size="14.00">Content</text>
</g>
<!-- Attribute&#45;&gt;Content -->
<g id="edge7" class="edge">
<title>Attribute&#45;&gt;Content</title>
<path fill="none" stroke="black" d="M500.48,-450C473.75,-450 441,-450 441,-450 441,-450 441,-336 441,-336 441,-336 240.7,-336 240.7,-336"/>
<polygon fill="black" stroke="black" points="240.7,-332.5 230.7,-336 240.7,-339.5 240.7,-332.5"/>
<text text-anchor="middle" x="423.59" y="-339.8" font-family="Helvetica,Arial,sans-serif" font-size="14.00">1</text>
</g>
<!-- Node -->
<g id="node9" class="node">
<title>Node</title>
<polygon fill="none" stroke="black" points="434.5,-468 380.5,-468 380.5,-432 434.5,-432 434.5,-468"/>
<text text-anchor="middle" x="407.5" y="-446.3" font-family="Helvetica,Arial,sans-serif" font-size="14.00">Node</text>
</g>
<!-- Node&#45;&gt;Dir -->
<g id="edge8" class="edge">
<title>Node&#45;&gt;Dir</title>
<path fill="none" stroke="black" d="M434.64,-441C452.08,-441 471.5,-441 471.5,-441 471.5,-441 471.5,-370.16 471.5,-370.16"/>
<polygon fill="black" stroke="black" points="475,-370.16 471.5,-360.16 468,-370.16 475,-370.16"/>
<text text-anchor="middle" x="460.5" y="-427.81" font-family="Helvetica,Arial,sans-serif" font-size="14.00">in 1</text>
</g>
<!-- CDATA -->
<g id="node10" class="node">
<title>CDATA</title>
<polygon fill="none" stroke="black" points="61,-576 0,-576 0,-540 61,-540 61,-576"/>
<text text-anchor="middle" x="30.5" y="-554.3" font-family="Helvetica,Arial,sans-serif" font-size="14.00">CDATA</text>
</g>
<!-- CDATA&#45;&gt;Content -->
<g id="edge13" class="edge">
<title>CDATA&#45;&gt;Content</title>
<path fill="none" stroke="black" d="M44.33,-539.73C44.33,-488.64 44.33,-348 44.33,-348 44.33,-348 156.18,-348 156.18,-348"/>
<polygon fill="black" stroke="black" points="156.18,-351.5 166.18,-348 156.18,-344.5 156.18,-351.5"/>
<text text-anchor="middle" x="34.83" y="-391.74" font-family="Helvetica,Arial,sans-serif" font-size="14.00">0/1</text>
</g>
<!-- CDATA&#45;&gt;Node -->
<g id="edge9" class="edge">
<title>CDATA&#45;&gt;Node</title>
<path fill="none" stroke="black" d="M52.67,-539.51C52.67,-507.69 52.67,-446 52.67,-446 52.67,-446 370.25,-446 370.25,-446"/>
<polygon fill="black" stroke="black" points="370.25,-449.5 380.25,-446 370.25,-442.5 370.25,-449.5"/>
<text text-anchor="middle" x="159.7" y="-449.8" font-family="Helvetica,Arial,sans-serif" font-size="14.00">is</text>
</g>
<!-- Comment -->
<g id="node11" class="node">
<title>Comment</title>
<polygon fill="none" stroke="black" points="355,-576 278,-576 278,-540 355,-540 355,-576"/>
<text text-anchor="middle" x="316.5" y="-554.3" font-family="Helvetica,Arial,sans-serif" font-size="14.00">Comment</text>
</g>
<!-- Comment&#45;&gt;Content -->
<g id="edge14" class="edge">
<title>Comment&#45;&gt;Content</title>
<path fill="none" stroke="black" d="M307.5,-539.73C307.5,-488.64 307.5,-348 307.5,-348 307.5,-348 240.61,-348 240.61,-348"/>
<polygon fill="black" stroke="black" points="240.61,-344.5 230.61,-348 240.61,-351.5 240.61,-344.5"/>
<text text-anchor="middle" x="298" y="-414.22" font-family="Helvetica,Arial,sans-serif" font-size="14.00">0/1</text>
</g>
<!-- Comment&#45;&gt;Node -->
<g id="edge10" class="edge">
<title>Comment&#45;&gt;Node</title>
<path fill="none" stroke="black" d="M355.31,-558C371.23,-558 386,-558 386,-558 386,-558 386,-478.32 386,-478.32"/>
<polygon fill="black" stroke="black" points="389.5,-478.32 386,-468.32 382.5,-478.32 389.5,-478.32"/>
<text text-anchor="middle" x="381" y="-537.3" font-family="Helvetica,Arial,sans-serif" font-size="14.00">is</text>
</g>
<!-- Text -->
<g id="node12" class="node">
<title>Text</title>
<polygon fill="none" stroke="black" points="241.5,-576 187.5,-576 187.5,-540 241.5,-540 241.5,-576"/>
<text text-anchor="middle" x="214.5" y="-554.3" font-family="Helvetica,Arial,sans-serif" font-size="14.00">Text</text>
</g>
<!-- Text&#45;&gt;Content -->
<g id="edge15" class="edge">
<title>Text&#45;&gt;Content</title>
<path fill="none" stroke="black" d="M209,-539.96C209,-539.96 209,-370.15 209,-370.15"/>
<polygon fill="black" stroke="black" points="212.5,-370.15 209,-360.15 205.5,-370.15 212.5,-370.15"/>
<text text-anchor="middle" x="205" y="-458.85" font-family="Helvetica,Arial,sans-serif" font-size="14.00">1</text>
</g>
<!-- Text&#45;&gt;Node -->
<g id="edge11" class="edge">
<title>Text&#45;&gt;Node</title>
<path fill="none" stroke="black" d="M235.25,-539.57C235.25,-511.18 235.25,-460 235.25,-460 235.25,-460 370.21,-460 370.21,-460"/>
<polygon fill="black" stroke="black" points="370.21,-463.5 380.21,-460 370.21,-456.5 370.21,-463.5"/>
<text text-anchor="middle" x="257.94" y="-463.8" font-family="Helvetica,Arial,sans-serif" font-size="14.00">is</text>
</g>
<!-- PI -->
<g id="node13" class="node">
<title>PI</title>
<polygon fill="none" stroke="black" points="151.5,-576 97.5,-576 97.5,-540 151.5,-540 151.5,-576"/>
<text text-anchor="middle" x="124.5" y="-554.3" font-family="Helvetica,Arial,sans-serif" font-size="14.00">PI</text>
</g>
<!-- PI&#45;&gt;Content -->
<g id="edge16" class="edge">
<title>PI&#45;&gt;Content</title>
<path fill="none" stroke="black" d="M151.67,-558C164.48,-558 177,-558 177,-558 177,-558 177,-370.04 177,-370.04"/>
<polygon fill="black" stroke="black" points="180.5,-370.04 177,-360.04 173.5,-370.04 180.5,-370.04"/>
<text text-anchor="middle" x="173" y="-480.49" font-family="Helvetica,Arial,sans-serif" font-size="14.00">1</text>
</g>
<!-- PI&#45;&gt;Node -->
<g id="edge12" class="edge">
<title>PI&#45;&gt;Node</title>
<path fill="none" stroke="black" d="M136.25,-539.71C136.25,-509.63 136.25,-453 136.25,-453 136.25,-453 370.5,-453 370.5,-453"/>
<polygon fill="black" stroke="black" points="370.5,-456.5 380.5,-453 370.5,-449.5 370.5,-456.5"/>
<text text-anchor="middle" x="205.02" y="-441.8" font-family="Helvetica,Arial,sans-serif" font-size="14.00">is</text>
</g>
<!-- Declaration -->
<g id="node14" class="node">
<title>Declaration</title>
<polygon fill="none" stroke="black" points="121,-36 36,-36 36,0 121,0 121,-36"/>
<text text-anchor="middle" x="78.5" y="-14.3" font-family="Helvetica,Arial,sans-serif" font-size="14.00">Declaration</text>
</g>
<!-- Declaration&#45;&gt;Content -->
<g id="edge17" class="edge">
<title>Declaration&#45;&gt;Content</title>
<path fill="none" stroke="black" d="M109.25,-36.01C109.25,-103.28 109.25,-336 109.25,-336 109.25,-336 156.28,-336 156.28,-336"/>
<polygon fill="black" stroke="black" points="156.28,-339.5 166.28,-336 156.28,-332.5 156.28,-339.5"/>
<text text-anchor="middle" x="88.25" y="-213.32" font-family="Helvetica,Arial,sans-serif" font-size="14.00">[has] 1</text>
</g>
<!-- DOCTYPE -->
<g id="node15" class="node">
<title>DOCTYPE</title>
<polygon fill="none" stroke="black" points="240,-36 157,-36 157,0 240,0 240,-36"/>
<text text-anchor="middle" x="198.5" y="-14.3" font-family="Helvetica,Arial,sans-serif" font-size="14.00">DOCTYPE</text>
</g>
<!-- DOCTYPE&#45;&gt;Content -->
<g id="edge18" class="edge">
<title>DOCTYPE&#45;&gt;Content</title>
<path fill="none" stroke="black" d="M198.5,-36.35C198.5,-36.35 198.5,-313.85 198.5,-313.85"/>
<polygon fill="black" stroke="black" points="195,-313.85 198.5,-323.85 202,-313.85 195,-313.85"/>
<text text-anchor="middle" x="194.5" y="-178.9" font-family="Helvetica,Arial,sans-serif" font-size="14.00">1</text>
</g>
<!-- Entity -->
<g id="node16" class="node">
<title>Entity</title>
<polygon fill="none" stroke="black" points="375.5,-36 321.5,-36 321.5,0 375.5,0 375.5,-36"/>
<text text-anchor="middle" x="348.5" y="-14.3" font-family="Helvetica,Arial,sans-serif" font-size="14.00">Entity</text>
</g>
<!-- Entity&#45;&gt;Node -->
<g id="edge21" class="edge">
<title>Entity&#45;&gt;Node</title>
<path fill="none" stroke="black" d="M365.25,-36.09C365.25,-116.67 365.25,-439 365.25,-439 365.25,-439 370.03,-439 370.03,-439"/>
<polygon fill="black" stroke="black" points="370.03,-442.5 380.03,-439 370.03,-435.5 370.03,-442.5"/>
<text text-anchor="middle" x="360.25" y="-243.73" font-family="Helvetica,Arial,sans-serif" font-size="14.00">is</text>
</g>
<!-- EntityCode -->
<g id="node18" class="node">
<title>EntityCode</title>
<polygon fill="none" stroke="black" points="337,-144 254,-144 254,-108 337,-108 337,-144"/>
<text text-anchor="middle" x="295.5" y="-122.3" font-family="Helvetica,Arial,sans-serif" font-size="14.00">EntityCode</text>
</g>
<!-- Entity&#45;&gt;EntityCode -->
<g id="edge20" class="edge">
<title>Entity&#45;&gt;EntityCode</title>
<path fill="none" stroke="black" d="M329.25,-36.32C329.25,-36.32 329.25,-97.95 329.25,-97.95"/>
<polygon fill="black" stroke="black" points="325.75,-97.95 329.25,-107.95 332.75,-97.95 325.75,-97.95"/>
<text text-anchor="middle" x="325.25" y="-70.94" font-family="Helvetica,Arial,sans-serif" font-size="14.00">1</text>
</g>
<!-- Internal -->
<g id="node17" class="node">
<title>Internal</title>
<polygon fill="none" stroke="black" points="453.5,-576 391.5,-576 391.5,-540 453.5,-540 453.5,-576"/>
<text text-anchor="middle" x="422.5" y="-554.3" font-family="Helvetica,Arial,sans-serif" font-size="14.00">Internal</text>
</g>
<!-- Internal&#45;&gt;Node -->
<g id="edge19" class="edge">
<title>Internal&#45;&gt;Node</title>
<path fill="none" stroke="black" d="M402.25,-539.68C402.25,-539.68 402.25,-478.05 402.25,-478.05"/>
<polygon fill="black" stroke="black" points="405.75,-478.05 402.25,-468.05 398.75,-478.05 405.75,-478.05"/>
<text text-anchor="middle" x="397.25" y="-512.66" font-family="Helvetica,Arial,sans-serif" font-size="14.00">is</text>
</g>
<!-- Tag -->
<g id="node19" class="node">
<title>Tag</title>
<polygon fill="none" stroke="black" points="657.5,-576 603.5,-576 603.5,-540 657.5,-540 657.5,-576"/>
<text text-anchor="middle" x="630.5" y="-554.3" font-family="Helvetica,Arial,sans-serif" font-size="14.00">Tag</text>
</g>
<!-- Tag&#45;&gt;Name -->
<g id="edge24" class="edge">
<title>Tag&#45;&gt;Name</title>
<path fill="none" stroke="black" d="M603.48,-558C591.47,-558 580,-558 580,-558 580,-558 580,-262.35 580,-262.35"/>
<polygon fill="black" stroke="black" points="583.5,-262.35 580,-252.35 576.5,-262.35 583.5,-262.35"/>
<text text-anchor="middle" x="576" y="-425.71" font-family="Helvetica,Arial,sans-serif" font-size="14.00">1</text>
</g>
<!-- Tag&#45;&gt;Attribute -->
<g id="edge23" class="edge">
<title>Tag&#45;&gt;Attribute</title>
<path fill="none" stroke="black" d="M644.75,-539.68C644.75,-508.87 644.75,-450 644.75,-450 644.75,-450 578.78,-450 578.78,-450"/>
<polygon fill="black" stroke="black" points="578.78,-446.5 568.78,-450 578.78,-453.5 578.78,-446.5"/>
<text text-anchor="middle" x="632.25" y="-465.65" font-family="Helvetica,Arial,sans-serif" font-size="14.00">0..A</text>
</g>
<!-- Tag&#45;&gt;Node -->
<g id="edge22" class="edge">
<title>Tag&#45;&gt;Node</title>
<path fill="none" stroke="black" d="M619.25,-539.94C619.25,-528.56 619.25,-516 619.25,-516 619.25,-516 413,-516 413,-516 413,-516 413,-478.03 413,-478.03"/>
<polygon fill="black" stroke="black" points="416.5,-478.03 413,-468.03 409.5,-478.03 416.5,-478.03"/>
<text text-anchor="middle" x="504.11" y="-519.8" font-family="Helvetica,Arial,sans-serif" font-size="14.00">is</text>
</g>
<!-- Tag&#45;&gt;Node -->
<g id="edge25" class="edge">
<title>Tag&#45;&gt;Node</title>
<path fill="none" stroke="black" d="M632,-539.97C632,-520.42 632,-492 632,-492 632,-492 423.75,-492 423.75,-492 423.75,-492 423.75,-478.06 423.75,-478.06"/>
<polygon fill="black" stroke="black" points="427.25,-478.06 423.75,-468.06 420.25,-478.06 427.25,-478.06"/>
<text text-anchor="middle" x="532.39" y="-495.8" font-family="Helvetica,Arial,sans-serif" font-size="14.00">0..C</text>
</g>
<!-- EmptyTag -->
<g id="node20" class="node">
<title>EmptyTag</title>
<polygon fill="none" stroke="black" points="567.5,-576 489.5,-576 489.5,-540 567.5,-540 567.5,-576"/>
<text text-anchor="middle" x="528.5" y="-554.3" font-family="Helvetica,Arial,sans-serif" font-size="14.00">EmptyTag</text>
</g>
<!-- EmptyTag&#45;&gt;Attribute -->
<g id="edge27" class="edge">
<title>EmptyTag&#45;&gt;Attribute</title>
<path fill="none" stroke="black" d="M534,-539.68C534,-539.68 534,-478.05 534,-478.05"/>
<polygon fill="black" stroke="black" points="537.5,-478.05 534,-468.05 530.5,-478.05 537.5,-478.05"/>
<text text-anchor="middle" x="546.5" y="-512.66" font-family="Helvetica,Arial,sans-serif" font-size="14.00">0..A</text>
</g>
<!-- EmptyTag&#45;&gt;Node -->
<g id="edge26" class="edge">
<title>EmptyTag&#45;&gt;Node</title>
<path fill="none" stroke="black" d="M495,-539.84C495,-511.26 495,-459 495,-459 495,-459 444.71,-459 444.71,-459"/>
<polygon fill="black" stroke="black" points="444.71,-455.5 434.71,-459 444.71,-462.5 444.71,-455.5"/>
<text text-anchor="middle" x="490" y="-478.07" font-family="Helvetica,Arial,sans-serif" font-size="14.00">is</text>
</g>
</g>
</svg>
