<?xml version="1.0" encoding="UTF-8" standalone="no"?>
<!DOCTYPE svg PUBLIC "-//W3C//DTD SVG 1.1//EN"
 "http://www.w3.org/Graphics/SVG/1.1/DTD/svg11.dtd">
<!-- Generated by graphviz version 2.42.4 (0)
 -->
<!-- Title: model_graph Pages: 1 -->
<svg width="937pt" height="608pt"
 viewBox="0.00 0.00 937.00 608.00" xmlns="http://www.w3.org/2000/svg" xmlns:xlink="http://www.w3.org/1999/xlink">
<g id="graph0" class="graph" transform="scale(1 1) rotate(0) translate(4 604)">
<title>model_graph</title>
<polygon fill="white" stroke="transparent" points="-4,4 -4,-604 933,-604 933,4 -4,4"/>
<!-- Name -->
<g id="node1" class="node">
<title>Name</title>
<polygon fill="none" stroke="black" points="350,-224 296,-224 296,-188 350,-188 350,-224"/>
<text text-anchor="middle" x="323" y="-202.3" font-family="Helvetica,Arial,sans-serif" font-size="14.00">Name</text>
</g>
<!-- LocalName -->
<g id="node2" class="node">
<title>LocalName</title>
<polygon fill="none" stroke="black" points="486,-130 400,-130 400,-94 486,-94 486,-130"/>
<text text-anchor="middle" x="443" y="-108.3" font-family="Helvetica,Arial,sans-serif" font-size="14.00">LocalName</text>
</g>
<!-- Name&#45;&gt;LocalName -->
<g id="edge1" class="edge">
<title>Name&#45;&gt;LocalName</title>
<path fill="none" stroke="black" d="M345.29,-187.91C364.2,-173.41 391.51,-152.48 412.45,-136.42"/>
<polygon fill="black" stroke="black" points="414.62,-139.17 420.42,-130.31 410.36,-133.62 414.62,-139.17"/>
<text text-anchor="middle" x="379.1" y="-162.72" font-family="Helvetica,Arial,sans-serif" font-size="14.00">1</text>
</g>
<!-- Prefix -->
<g id="node3" class="node">
<title>Prefix</title>
<polygon fill="none" stroke="black" points="350,-130 296,-130 296,-94 350,-94 350,-130"/>
<text text-anchor="middle" x="323" y="-108.3" font-family="Helvetica,Arial,sans-serif" font-size="14.00">Prefix</text>
</g>
<!-- Name&#45;&gt;Prefix -->
<g id="edge2" class="edge">
<title>Name&#45;&gt;Prefix</title>
<path fill="none" stroke="black" d="M323,-187.7C323,-174.46 323,-155.95 323,-140.66"/>
<polygon fill="black" stroke="black" points="326.5,-140.23 323,-130.23 319.5,-140.23 326.5,-140.23"/>
<text text-anchor="middle" x="313.5" y="-162.96" font-family="Helvetica,Arial,sans-serif" font-size="14.00">0/1</text>
</g>
<!-- NS -->
<g id="node4" class="node">
<title>NS</title>
<polygon fill="none" stroke="black" points="350,-36 296,-36 296,0 350,0 350,-36"/>
<text text-anchor="middle" x="323" y="-14.3" font-family="Helvetica,Arial,sans-serif" font-size="14.00">NS</text>
</g>
<!-- Prefix&#45;&gt;NS -->
<g id="edge3" class="edge">
<title>Prefix&#45;&gt;NS</title>
<path fill="none" stroke="black" d="M323,-93.7C323,-80.46 323,-61.95 323,-46.66"/>
<polygon fill="black" stroke="black" points="326.5,-46.23 323,-36.23 319.5,-46.23 326.5,-46.23"/>
<text text-anchor="middle" x="294" y="-68.96" font-family="Helvetica,Arial,sans-serif" font-size="14.00">refers 0/1</text>
</g>
<!-- Dir -->
<g id="node5" class="node">
<title>Dir</title>
<polygon fill="none" stroke="black" points="246,-224 192,-224 192,-188 246,-188 246,-224"/>
<text text-anchor="middle" x="219" y="-202.3" font-family="Helvetica,Arial,sans-serif" font-size="14.00">Dir</text>
</g>
<!-- Dir&#45;&gt;Name -->
<g id="edge4" class="edge">
<title>Dir&#45;&gt;Name</title>
<path fill="none" stroke="black" d="M246.22,-206C259.36,-206 272.51,-206 285.65,-206"/>
<polygon fill="black" stroke="black" points="285.71,-209.5 295.71,-206 285.71,-202.5 285.71,-209.5"/>
<text text-anchor="middle" x="258.67" y="-209.8" font-family="Helvetica,Arial,sans-serif" font-size="14.00">1..N</text>
</g>
<!-- Depth -->
<g id="node6" class="node">
<title>Depth</title>
<polygon fill="none" stroke="black" points="246,-130 192,-130 192,-94 246,-94 246,-130"/>
<text text-anchor="middle" x="219" y="-108.3" font-family="Helvetica,Arial,sans-serif" font-size="14.00">Depth</text>
</g>
<!-- Dir&#45;&gt;Depth -->
<g id="edge5" class="edge">
<title>Dir&#45;&gt;Depth</title>
<path fill="none" stroke="black" d="M219,-187.7C219,-174.46 219,-155.95 219,-140.66"/>
<polygon fill="black" stroke="black" points="222.5,-140.23 219,-130.23 215.5,-140.23 222.5,-140.23"/>
<text text-anchor="middle" x="215" y="-162.96" font-family="Helvetica,Arial,sans-serif" font-size="14.00">1</text>
</g>
<!-- Attribute -->
<g id="node7" class="node">
<title>Attribute</title>
<polygon fill="none" stroke="black" points="452,-412 384,-412 384,-376 452,-376 452,-412"/>
<text text-anchor="middle" x="418" y="-390.3" font-family="Helvetica,Arial,sans-serif" font-size="14.00">Attribute</text>
</g>
<!-- Attribute&#45;&gt;Name -->
<g id="edge6" class="edge">
<title>Attribute&#45;&gt;Name</title>
<path fill="none" stroke="black" d="M406.86,-375.75C397.37,-360.76 383.63,-338.32 373,-318 358.24,-289.77 343.53,-256.32 333.93,-233.56"/>
<polygon fill="black" stroke="black" points="337.11,-232.09 330.02,-224.22 330.65,-234.8 337.11,-232.09"/>
<text text-anchor="middle" x="360.91" y="-305.82" font-family="Helvetica,Arial,sans-serif" font-size="14.00">1</text>
</g>
<!-- Value -->
<g id="node8" class="node">
<title>Value</title>
<polygon fill="none" stroke="black" points="452,-318 398,-318 398,-282 452,-282 452,-318"/>
<text text-anchor="middle" x="425" y="-296.3" font-family="Helvetica,Arial,sans-serif" font-size="14.00">Value</text>
</g>
<!-- Attribute&#45;&gt;Value -->
<g id="edge7" class="edge">
<title>Attribute&#45;&gt;Value</title>
<path fill="none" stroke="black" d="M419.32,-375.7C420.33,-362.33 421.76,-343.59 422.93,-328.22"/>
<polygon fill="black" stroke="black" points="426.42,-328.46 423.69,-318.23 419.44,-327.93 426.42,-328.46"/>
<text text-anchor="middle" x="417.48" y="-351.05" font-family="Helvetica,Arial,sans-serif" font-size="14.00">1</text>
</g>
<!-- Content -->
<g id="node9" class="node">
<title>Content</title>
<polygon fill="none" stroke="black" points="560,-224 496,-224 496,-188 560,-188 560,-224"/>
<text text-anchor="middle" x="528" y="-202.3" font-family="Helvetica,Arial,sans-serif" font-size="14.00">Content</text>
</g>
<!-- Value&#45;&gt;Content -->
<g id="edge8" class="edge">
<title>Value&#45;&gt;Content</title>
<path fill="none" stroke="black" d="M444.37,-281.7C460.34,-267.43 483.17,-247.04 500.95,-231.16"/>
<polygon fill="black" stroke="black" points="503.59,-233.5 508.71,-224.23 498.92,-228.28 503.59,-233.5"/>
<text text-anchor="middle" x="471.65" y="-256.67" font-family="Helvetica,Arial,sans-serif" font-size="14.00">is</text>
</g>
<!-- Node -->
<g id="node10" class="node">
<title>Node</title>
<polygon fill="none" stroke="black" points="246,-318 192,-318 192,-282 246,-282 246,-318"/>
<text text-anchor="middle" x="219" y="-296.3" font-family="Helvetica,Arial,sans-serif" font-size="14.00">Node</text>
</g>
<!-- Node&#45;&gt;Dir -->
<g id="edge9" class="edge">
<title>Node&#45;&gt;Dir</title>
<path fill="none" stroke="black" d="M219,-281.7C219,-268.46 219,-249.95 219,-234.66"/>
<polygon fill="black" stroke="black" points="222.5,-234.23 219,-224.23 215.5,-234.23 222.5,-234.23"/>
<text text-anchor="middle" x="208" y="-256.96" font-family="Helvetica,Arial,sans-serif" font-size="14.00">in 1</text>
</g>
<!-- Contentful -->
<g id="node11" class="node">
<title>Contentful</title>
<polygon fill="none" stroke="black" points="751,-412 673,-412 673,-376 751,-376 751,-412"/>
<text text-anchor="middle" x="712" y="-390.3" font-family="Helvetica,Arial,sans-serif" font-size="14.00">Contentful</text>
</g>
<!-- Contentful&#45;&gt;Content -->
<g id="edge11" class="edge">
<title>Contentful&#45;&gt;Content</title>
<path fill="none" stroke="black" d="M695.02,-375.83C662.16,-342.62 589.78,-269.45 552.01,-231.27"/>
<polygon fill="black" stroke="black" points="554.46,-228.77 544.94,-224.12 549.48,-233.69 554.46,-228.77"/>
<text text-anchor="middle" x="615.99" y="-303.79" font-family="Helvetica,Arial,sans-serif" font-size="14.00">1</text>
</g>
<!-- Contentful&#45;&gt;Node -->
<g id="edge10" class="edge">
<title>Contentful&#45;&gt;Node</title>
<path fill="none" stroke="black" d="M672.9,-385.7C579.92,-368.35 346.62,-324.82 255.9,-307.89"/>
<polygon fill="black" stroke="black" points="256.53,-304.44 246.06,-306.05 255.25,-311.32 256.53,-304.44"/>
<text text-anchor="middle" x="454.27" y="-349.64" font-family="Helvetica,Arial,sans-serif" font-size="14.00">is</text>
</g>
<!-- CDATA -->
<g id="node12" class="node">
<title>CDATA</title>
<polygon fill="none" stroke="black" points="606.5,-600 545.5,-600 545.5,-564 606.5,-564 606.5,-600"/>
<text text-anchor="middle" x="576" y="-578.3" font-family="Helvetica,Arial,sans-serif" font-size="14.00">CDATA</text>
</g>
<!-- CDATA&#45;&gt;Contentful -->
<g id="edge12" class="edge">
<title>CDATA&#45;&gt;Contentful</title>
<path fill="none" stroke="black" d="M588.55,-563.83C612.64,-530.89 665.45,-458.67 693.55,-420.23"/>
<polygon fill="black" stroke="black" points="696.4,-422.26 699.48,-412.12 690.75,-418.13 696.4,-422.26"/>
<text text-anchor="middle" x="638.94" y="-491.88" font-family="Helvetica,Arial,sans-serif" font-size="14.00">is</text>
</g>
<!-- Comment -->
<g id="node13" class="node">
<title>Comment</title>
<polygon fill="none" stroke="black" points="733.5,-600 656.5,-600 656.5,-564 733.5,-564 733.5,-600"/>
<text text-anchor="middle" x="695" y="-578.3" font-family="Helvetica,Arial,sans-serif" font-size="14.00">Comment</text>
</g>
<!-- Comment&#45;&gt;Contentful -->
<g id="edge13" class="edge">
<title>Comment&#45;&gt;Contentful</title>
<path fill="none" stroke="black" d="M696.57,-563.83C699.53,-531.45 705.96,-461.09 709.51,-422.2"/>
<polygon fill="black" stroke="black" points="713.01,-422.4 710.43,-412.12 706.04,-421.76 713.01,-422.4"/>
<text text-anchor="middle" x="698.5" y="-491.79" font-family="Helvetica,Arial,sans-serif" font-size="14.00">is</text>
</g>
<!-- Text -->
<g id="node14" class="node">
<title>Text</title>
<polygon fill="none" stroke="black" points="825,-506 771,-506 771,-470 825,-470 825,-506"/>
<text text-anchor="middle" x="798" y="-484.3" font-family="Helvetica,Arial,sans-serif" font-size="14.00">Text</text>
</g>
<!-- Text&#45;&gt;Contentful -->
<g id="edge14" class="edge">
<title>Text&#45;&gt;Contentful</title>
<path fill="none" stroke="black" d="M781.82,-469.7C768.61,-455.56 749.77,-435.41 734.99,-419.59"/>
<polygon fill="black" stroke="black" points="737.49,-417.14 728.1,-412.23 732.38,-421.92 737.49,-417.14"/>
<text text-anchor="middle" x="749.75" y="-444.53" font-family="Helvetica,Arial,sans-serif" font-size="14.00">is</text>
</g>
<!-- PI -->
<g id="node15" class="node">
<title>PI</title>
<polygon fill="none" stroke="black" points="929,-506 875,-506 875,-470 929,-470 929,-506"/>
<text text-anchor="middle" x="902" y="-484.3" font-family="Helvetica,Arial,sans-serif" font-size="14.00">PI</text>
</g>
<!-- PI&#45;&gt;Contentful -->
<g id="edge15" class="edge">
<title>PI&#45;&gt;Contentful</title>
<path fill="none" stroke="black" d="M874.78,-473.82C843.98,-458.9 793.34,-434.39 756.71,-416.65"/>
<polygon fill="black" stroke="black" points="757.78,-413.28 747.26,-412.07 754.73,-419.58 757.78,-413.28"/>
<text text-anchor="middle" x="805.99" y="-446.73" font-family="Helvetica,Arial,sans-serif" font-size="14.00">is</text>
</g>
<!-- Declaration -->
<g id="node16" class="node">
<title>Declaration</title>
<polygon fill="none" stroke="black" points="774.5,-36 689.5,-36 689.5,0 774.5,0 774.5,-36"/>
<text text-anchor="middle" x="732" y="-14.3" font-family="Helvetica,Arial,sans-serif" font-size="14.00">Declaration</text>
</g>
<!-- Declaration&#45;&gt;Contentful -->
<g id="edge16" class="edge">
<title>Declaration&#45;&gt;Contentful</title>
<path fill="none" stroke="black" d="M731.08,-36.14C727.91,-95.56 717.35,-293.02 713.46,-365.77"/>
<polygon fill="black" stroke="black" points="709.95,-365.79 712.91,-375.96 716.94,-366.16 709.95,-365.79"/>
<text text-anchor="middle" x="717" y="-209.8" font-family="Helvetica,Arial,sans-serif" font-size="14.00">is</text>
</g>
<!-- DOCTYPE -->
<g id="node17" class="node">
<title>DOCTYPE</title>
<polygon fill="none" stroke="black" points="907.5,-36 824.5,-36 824.5,0 907.5,0 907.5,-36"/>
<text text-anchor="middle" x="866" y="-14.3" font-family="Helvetica,Arial,sans-serif" font-size="14.00">DOCTYPE</text>
</g>
<!-- DOCTYPE&#45;&gt;Contentful -->
<g id="edge17" class="edge">
<title>DOCTYPE&#45;&gt;Contentful</title>
<path fill="none" stroke="black" d="M860.57,-36.23C845.72,-82.66 802.3,-213.92 754,-318 746.22,-334.77 736.14,-352.87 727.8,-367.09"/>
<polygon fill="black" stroke="black" points="724.71,-365.43 722.61,-375.81 730.73,-369 724.71,-365.43"/>
<text text-anchor="middle" x="794.75" y="-212.91" font-family="Helvetica,Arial,sans-serif" font-size="14.00">is</text>
</g>
<!-- Contentless -->
<g id="node18" class="node">
<title>Contentless</title>
<polygon fill="none" stroke="black" points="334,-412 246,-412 246,-376 334,-376 334,-412"/>
<text text-anchor="middle" x="290" y="-390.3" font-family="Helvetica,Arial,sans-serif" font-size="14.00">Contentless</text>
</g>
<!-- Contentless&#45;&gt;Node -->
<g id="edge18" class="edge">
<title>Contentless&#45;&gt;Node</title>
<path fill="none" stroke="black" d="M276.65,-375.7C265.94,-361.82 250.75,-342.14 238.65,-326.46"/>
<polygon fill="black" stroke="black" points="241.18,-324.01 232.29,-318.23 235.63,-328.28 241.18,-324.01"/>
<text text-anchor="middle" x="249.42" y="-350.69" font-family="Helvetica,Arial,sans-serif" font-size="14.00">is</text>
</g>
<!-- Entity -->
<g id="node19" class="node">
<title>Entity</title>
<polygon fill="none" stroke="black" points="194,-506 140,-506 140,-470 194,-470 194,-506"/>
<text text-anchor="middle" x="167" y="-484.3" font-family="Helvetica,Arial,sans-serif" font-size="14.00">Entity</text>
</g>
<!-- Entity&#45;&gt;Contentless -->
<g id="edge19" class="edge">
<title>Entity&#45;&gt;Contentless</title>
<path fill="none" stroke="black" d="M189.85,-469.91C209.23,-455.41 237.22,-434.48 258.69,-418.42"/>
<polygon fill="black" stroke="black" points="260.95,-421.1 266.86,-412.31 256.75,-415.5 260.95,-421.1"/>
<text text-anchor="middle" x="223.6" y="-444.72" font-family="Helvetica,Arial,sans-serif" font-size="14.00">is</text>
</g>
<!-- EntityCode -->
<g id="node20" class="node">
<title>EntityCode</title>
<polygon fill="none" stroke="black" points="195.5,-412 112.5,-412 112.5,-376 195.5,-376 195.5,-412"/>
<text text-anchor="middle" x="154" y="-390.3" font-family="Helvetica,Arial,sans-serif" font-size="14.00">EntityCode</text>
</g>
<!-- Entity&#45;&gt;EntityCode -->
<g id="edge20" class="edge">
<title>Entity&#45;&gt;EntityCode</title>
<path fill="none" stroke="black" d="M164.55,-469.7C162.67,-456.33 160.02,-437.59 157.85,-422.22"/>
<polygon fill="black" stroke="black" points="161.3,-421.64 156.43,-412.23 154.37,-422.62 161.3,-421.64"/>
<text text-anchor="middle" x="139.54" y="-445.05" font-family="Helvetica,Arial,sans-serif" font-size="14.00">[has] 1</text>
</g>
<!-- EmptyTag -->
<g id="node21" class="node">
<title>EmptyTag</title>
<polygon fill="none" stroke="black" points="332,-506 254,-506 254,-470 332,-470 332,-506"/>
<text text-anchor="middle" x="293" y="-484.3" font-family="Helvetica,Arial,sans-serif" font-size="14.00">EmptyTag</text>
</g>
<!-- EmptyTag&#45;&gt;Attribute -->
<g id="edge22" class="edge">
<title>EmptyTag&#45;&gt;Attribute</title>
<path fill="none" stroke="black" d="M316.22,-469.91C335.91,-455.41 364.36,-434.48 386.18,-418.42"/>
<polygon fill="black" stroke="black" points="388.5,-421.06 394.48,-412.31 384.35,-415.42 388.5,-421.06"/>
<text text-anchor="middle" x="343.1" y="-444.72" font-family="Helvetica,Arial,sans-serif" font-size="14.00">0..A</text>
</g>
<!-- EmptyTag&#45;&gt;Contentless -->
<g id="edge21" class="edge">
<title>EmptyTag&#45;&gt;Contentless</title>
<path fill="none" stroke="black" d="M292.44,-469.7C292,-456.46 291.4,-437.95 290.9,-422.66"/>
<polygon fill="black" stroke="black" points="294.39,-422.11 290.56,-412.23 287.39,-422.34 294.39,-422.11"/>
<text text-anchor="middle" x="286.51" y="-444.96" font-family="Helvetica,Arial,sans-serif" font-size="14.00">is</text>
</g>
<!-- Tag -->
<g id="node22" class="node">
<title>Tag</title>
<polygon fill="none" stroke="black" points="442,-506 388,-506 388,-470 442,-470 442,-506"/>
<text text-anchor="middle" x="415" y="-484.3" font-family="Helvetica,Arial,sans-serif" font-size="14.00">Tag</text>
</g>
<!-- Tag&#45;&gt;Name -->
<g id="edge25" class="edge">
<title>Tag&#45;&gt;Name</title>
<path fill="none" stroke="black" d="M435.18,-469.93C449.92,-456.05 468.71,-435.05 477,-412 496.56,-357.63 507.63,-330.99 477,-282 451.56,-241.32 397.03,-222.13 360.17,-213.49"/>
<polygon fill="black" stroke="black" points="360.8,-210.05 350.28,-211.33 359.3,-216.89 360.8,-210.05"/>
<text text-anchor="middle" x="472.98" y="-285.77" font-family="Helvetica,Arial,sans-serif" font-size="14.00">1</text>
</g>
<!-- Tag&#45;&gt;Attribute -->
<g id="edge24" class="edge">
<title>Tag&#45;&gt;Attribute</title>
<path fill="none" stroke="black" d="M415.56,-469.7C416,-456.46 416.6,-437.95 417.1,-422.66"/>
<polygon fill="black" stroke="black" points="420.61,-422.34 417.44,-412.23 413.61,-422.11 420.61,-422.34"/>
<text text-anchor="middle" x="403.99" y="-444.96" font-family="Helvetica,Arial,sans-serif" font-size="14.00">0..A</text>
</g>
<!-- Tag&#45;&gt;Contentless -->
<g id="edge23" class="edge">
<title>Tag&#45;&gt;Contentless</title>
<path fill="none" stroke="black" d="M391.78,-469.91C372.09,-455.41 343.64,-434.48 321.82,-418.42"/>
<polygon fill="black" stroke="black" points="323.65,-415.42 313.52,-412.31 319.5,-421.06 323.65,-415.42"/>
<text text-anchor="middle" x="347.4" y="-429.72" font-family="Helvetica,Arial,sans-serif" font-size="14.00">is</text>
</g>
<!-- Tag&#45;&gt;Tag -->
<g id="edge26" class="edge">
<title>Tag&#45;&gt;Tag:n</title>
<path fill="none" stroke="black" d="M442.23,-473.62C466.34,-467.29 492,-474.02 492,-497 492,-526.33 450.2,-529.19 423.18,-512.2"/>
<polygon fill="black" stroke="black" points="425.08,-509.25 415,-506 420.85,-514.83 425.08,-509.25"/>
<text text-anchor="middle" x="454.74" y="-477.42" font-family="Helvetica,Arial,sans-serif" font-size="14.00">0..C</text>
</g>
<!-- Internal -->
<g id="node23" class="node">
<title>Internal</title>
<polygon fill="none" stroke="black" points="62,-412 0,-412 0,-376 62,-376 62,-412"/>
<text text-anchor="middle" x="31" y="-390.3" font-family="Helvetica,Arial,sans-serif" font-size="14.00">Internal</text>
</g>
<!-- Internal&#45;&gt;Node -->
<g id="edge27" class="edge">
<title>Internal&#45;&gt;Node</title>
<path fill="none" stroke="black" d="M62.04,-377.81C95.12,-361.62 147.45,-336.01 182.49,-318.87"/>
<polygon fill="black" stroke="black" points="184.44,-321.81 191.88,-314.27 181.36,-315.52 184.44,-321.81"/>
<text text-anchor="middle" x="122.1" y="-349.77" font-family="Helvetica,Arial,sans-serif" font-size="14.00">is</text>
</g>
<!-- CloseTag -->
<g id="node24" class="node">
<title>CloseTag</title>
<polygon fill="none" stroke="black" points="267,-600 193,-600 193,-564 267,-564 267,-600"/>
<text text-anchor="middle" x="230" y="-578.3" font-family="Helvetica,Arial,sans-serif" font-size="14.00">CloseTag</text>
</g>
<!-- CloseTag&#45;&gt;Tag -->
<g id="edge29" class="edge">
<title>CloseTag&#45;&gt;Tag</title>
<path fill="none" stroke="black" d="M264.36,-563.91C296.79,-547.78 345.26,-523.68 378.4,-507.2"/>
<polygon fill="black" stroke="black" points="380.34,-510.14 387.74,-502.56 377.23,-503.88 380.34,-510.14"/>
<text text-anchor="middle" x="317.88" y="-537.12" font-family="Helvetica,Arial,sans-serif" font-size="14.00">for</text>
</g>
<!-- CloseTag&#45;&gt;Internal -->
<g id="edge28" class="edge">
<title>CloseTag&#45;&gt;Internal</title>
<path fill="none" stroke="black" d="M197.64,-563.94C173.35,-550.21 140.1,-529.41 115,-506 87.42,-480.28 62.25,-444.67 46.8,-420.78"/>
<polygon fill="black" stroke="black" points="49.69,-418.81 41.37,-412.25 43.78,-422.56 49.69,-418.81"/>
<text text-anchor="middle" x="103.26" y="-503.28" font-family="Helvetica,Arial,sans-serif" font-size="14.00">is</text>
</g>
</g>
</svg>
