<?xml version="1.0" encoding="UTF-8" standalone="no"?>
<!DOCTYPE svg PUBLIC "-//W3C//DTD SVG 1.1//EN"
 "http://www.w3.org/Graphics/SVG/1.1/DTD/svg11.dtd">
<!-- Generated by graphviz version 2.42.4 (0)
 -->
<!-- Title: model_graph Pages: 1 -->
<svg width="724pt" height="404pt"
 viewBox="0.00 0.00 723.50 404.00" xmlns="http://www.w3.org/2000/svg" xmlns:xlink="http://www.w3.org/1999/xlink">
<g id="graph0" class="graph" transform="scale(1 1) rotate(0) translate(4 400)">
<title>model_graph</title>
<polygon fill="white" stroke="transparent" points="-4,4 -4,-400 719.5,-400 719.5,4 -4,4"/>
<!-- Name -->
<g id="node1" class="node">
<title>Name</title>
<polygon fill="none" stroke="black" points="126,-180 72,-180 72,-144 126,-144 126,-180"/>
<text text-anchor="middle" x="99" y="-158.3" font-family="Helvetica,Arial,sans-serif" font-size="14.00">Name</text>
</g>
<!-- LocalName -->
<g id="node2" class="node">
<title>LocalName</title>
<polygon fill="none" stroke="black" points="86,-108 0,-108 0,-72 86,-72 86,-108"/>
<text text-anchor="middle" x="43" y="-86.3" font-family="Helvetica,Arial,sans-serif" font-size="14.00">LocalName</text>
</g>
<!-- Name&#45;&gt;LocalName -->
<g id="edge1" class="edge">
<title>Name&#45;&gt;LocalName</title>
<path fill="none" stroke="black" d="M79,-143.83C79,-143.83 79,-118.41 79,-118.41"/>
<polygon fill="black" stroke="black" points="82.5,-118.41 79,-108.41 75.5,-118.41 82.5,-118.41"/>
<text text-anchor="middle" x="75" y="-119.92" font-family="Helvetica,Arial,sans-serif" font-size="14.00">1</text>
</g>
<!-- Prefix -->
<g id="node3" class="node">
<title>Prefix</title>
<polygon fill="none" stroke="black" points="183,-108 129,-108 129,-72 183,-72 183,-108"/>
<text text-anchor="middle" x="156" y="-86.3" font-family="Helvetica,Arial,sans-serif" font-size="14.00">Prefix</text>
</g>
<!-- Name&#45;&gt;Prefix -->
<g id="edge2" class="edge">
<title>Name&#45;&gt;Prefix</title>
<path fill="none" stroke="black" d="M106,-143.83C106,-122.5 106,-90 106,-90 106,-90 118.95,-90 118.95,-90"/>
<polygon fill="black" stroke="black" points="118.95,-93.5 128.95,-90 118.95,-86.5 118.95,-93.5"/>
<text text-anchor="middle" x="96.5" y="-114.24" font-family="Helvetica,Arial,sans-serif" font-size="14.00">0/1</text>
</g>
<!-- NS -->
<g id="node4" class="node">
<title>NS</title>
<polygon fill="none" stroke="black" points="183,-36 129,-36 129,0 183,0 183,-36"/>
<text text-anchor="middle" x="156" y="-14.3" font-family="Helvetica,Arial,sans-serif" font-size="14.00">NS</text>
</g>
<!-- Prefix&#45;&gt;NS -->
<g id="edge3" class="edge">
<title>Prefix&#45;&gt;NS</title>
<path fill="none" stroke="black" d="M156,-71.83C156,-71.83 156,-46.41 156,-46.41"/>
<polygon fill="black" stroke="black" points="159.5,-46.41 156,-36.41 152.5,-46.41 159.5,-46.41"/>
<text text-anchor="middle" x="127" y="-47.92" font-family="Helvetica,Arial,sans-serif" font-size="14.00">refers 0/1</text>
</g>
<!-- Dir -->
<g id="node5" class="node">
<title>Dir</title>
<polygon fill="none" stroke="black" points="267,-252 213,-252 213,-216 267,-216 267,-252"/>
<text text-anchor="middle" x="240" y="-230.3" font-family="Helvetica,Arial,sans-serif" font-size="14.00">Dir</text>
</g>
<!-- Dir&#45;&gt;Name -->
<g id="edge4" class="edge">
<title>Dir&#45;&gt;Name</title>
<path fill="none" stroke="black" d="M212.88,-234C176.49,-234 116.4,-234 116.4,-234 116.4,-234 116.4,-190.17 116.4,-190.17"/>
<polygon fill="black" stroke="black" points="119.9,-190.17 116.4,-180.17 112.9,-190.17 119.9,-190.17"/>
<text text-anchor="middle" x="130.22" y="-237.8" font-family="Helvetica,Arial,sans-serif" font-size="14.00">1..N</text>
</g>
<!-- Depth -->
<g id="node6" class="node">
<title>Depth</title>
<polygon fill="none" stroke="black" points="267,-180 213,-180 213,-144 267,-144 267,-180"/>
<text text-anchor="middle" x="240" y="-158.3" font-family="Helvetica,Arial,sans-serif" font-size="14.00">Depth</text>
</g>
<!-- Dir&#45;&gt;Depth -->
<g id="edge5" class="edge">
<title>Dir&#45;&gt;Depth</title>
<path fill="none" stroke="black" d="M240,-215.83C240,-215.83 240,-190.41 240,-190.41"/>
<polygon fill="black" stroke="black" points="243.5,-190.41 240,-180.41 236.5,-190.41 243.5,-190.41"/>
<text text-anchor="middle" x="236" y="-191.92" font-family="Helvetica,Arial,sans-serif" font-size="14.00">1</text>
</g>
<!-- Attribute -->
<g id="node7" class="node">
<title>Attribute</title>
<polygon fill="none" stroke="black" points="86,-324 18,-324 18,-288 86,-288 86,-324"/>
<text text-anchor="middle" x="52" y="-302.3" font-family="Helvetica,Arial,sans-serif" font-size="14.00">Attribute</text>
</g>
<!-- Attribute&#45;&gt;Name -->
<g id="edge6" class="edge">
<title>Attribute&#45;&gt;Name</title>
<path fill="none" stroke="black" d="M81.33,-287.76C81.33,-287.76 81.33,-190.09 81.33,-190.09"/>
<polygon fill="black" stroke="black" points="84.83,-190.09 81.33,-180.09 77.83,-190.09 84.83,-190.09"/>
<text text-anchor="middle" x="77.33" y="-242.73" font-family="Helvetica,Arial,sans-serif" font-size="14.00">1</text>
</g>
<!-- Content -->
<g id="node8" class="node">
<title>Content</title>
<polygon fill="none" stroke="black" points="546,-252 482,-252 482,-216 546,-216 546,-252"/>
<text text-anchor="middle" x="514" y="-230.3" font-family="Helvetica,Arial,sans-serif" font-size="14.00">Content</text>
</g>
<!-- Attribute&#45;&gt;Content -->
<g id="edge7" class="edge">
<title>Attribute&#45;&gt;Content</title>
<path fill="none" stroke="black" d="M76.67,-287.58C76.67,-278.72 76.67,-270 76.67,-270 76.67,-270 488,-270 488,-270 488,-270 488,-262.42 488,-262.42"/>
<polygon fill="black" stroke="black" points="491.5,-262.42 488,-252.42 484.5,-262.42 491.5,-262.42"/>
<text text-anchor="middle" x="273.33" y="-273.8" font-family="Helvetica,Arial,sans-serif" font-size="14.00">1</text>
</g>
<!-- Node -->
<g id="node9" class="node">
<title>Node</title>
<polygon fill="none" stroke="black" points="275,-324 221,-324 221,-288 275,-288 275,-324"/>
<text text-anchor="middle" x="248" y="-302.3" font-family="Helvetica,Arial,sans-serif" font-size="14.00">Node</text>
</g>
<!-- Node&#45;&gt;Dir -->
<g id="edge8" class="edge">
<title>Node&#45;&gt;Dir</title>
<path fill="none" stroke="black" d="M244,-287.83C244,-287.83 244,-262.41 244,-262.41"/>
<polygon fill="black" stroke="black" points="247.5,-262.41 244,-252.41 240.5,-262.41 247.5,-262.41"/>
<text text-anchor="middle" x="233" y="-263.92" font-family="Helvetica,Arial,sans-serif" font-size="14.00">in 1</text>
</g>
<!-- CDATA -->
<g id="node10" class="node">
<title>CDATA</title>
<polygon fill="none" stroke="black" points="282.5,-396 221.5,-396 221.5,-360 282.5,-360 282.5,-396"/>
<text text-anchor="middle" x="252" y="-374.3" font-family="Helvetica,Arial,sans-serif" font-size="14.00">CDATA</text>
</g>
<!-- CDATA&#45;&gt;Content -->
<g id="edge13" class="edge">
<title>CDATA&#45;&gt;Content</title>
<path fill="none" stroke="black" d="M278.75,-359.91C278.75,-320.01 278.75,-228 278.75,-228 278.75,-228 471.78,-228 471.78,-228"/>
<polygon fill="black" stroke="black" points="471.78,-231.5 481.78,-228 471.78,-224.5 471.78,-231.5"/>
<text text-anchor="middle" x="299.81" y="-231.8" font-family="Helvetica,Arial,sans-serif" font-size="14.00">0/1</text>
</g>
<!-- CDATA&#45;&gt;Node -->
<g id="edge9" class="edge">
<title>CDATA&#45;&gt;Node</title>
<path fill="none" stroke="black" d="M248.25,-359.83C248.25,-359.83 248.25,-334.41 248.25,-334.41"/>
<polygon fill="black" stroke="black" points="251.75,-334.41 248.25,-324.41 244.75,-334.41 251.75,-334.41"/>
<text text-anchor="middle" x="243.25" y="-335.92" font-family="Helvetica,Arial,sans-serif" font-size="14.00">is</text>
</g>
<!-- Comment -->
<g id="node11" class="node">
<title>Comment</title>
<polygon fill="none" stroke="black" points="402.5,-396 325.5,-396 325.5,-360 402.5,-360 402.5,-396"/>
<text text-anchor="middle" x="364" y="-374.3" font-family="Helvetica,Arial,sans-serif" font-size="14.00">Comment</text>
</g>
<!-- Comment&#45;&gt;Content -->
<g id="edge14" class="edge">
<title>Comment&#45;&gt;Content</title>
<path fill="none" stroke="black" d="M376.75,-359.96C376.75,-322.55 376.75,-240 376.75,-240 376.75,-240 471.82,-240 471.82,-240"/>
<polygon fill="black" stroke="black" points="471.82,-243.5 481.82,-240 471.82,-236.5 471.82,-243.5"/>
<text text-anchor="middle" x="367.25" y="-256.24" font-family="Helvetica,Arial,sans-serif" font-size="14.00">0/1</text>
</g>
<!-- Comment&#45;&gt;Node -->
<g id="edge10" class="edge">
<title>Comment&#45;&gt;Node</title>
<path fill="none" stroke="black" d="M340.75,-359.78C340.75,-341.17 340.75,-315 340.75,-315 340.75,-315 285.33,-315 285.33,-315"/>
<polygon fill="black" stroke="black" points="285.33,-311.5 275.33,-315 285.33,-318.5 285.33,-311.5"/>
<text text-anchor="middle" x="330.43" y="-318.8" font-family="Helvetica,Arial,sans-serif" font-size="14.00">is</text>
</g>
<!-- Text -->
<g id="node12" class="node">
<title>Text</title>
<polygon fill="none" stroke="black" points="500,-396 446,-396 446,-360 500,-360 500,-396"/>
<text text-anchor="middle" x="473" y="-374.3" font-family="Helvetica,Arial,sans-serif" font-size="14.00">Text</text>
</g>
<!-- Text&#45;&gt;Content -->
<g id="edge15" class="edge">
<title>Text&#45;&gt;Content</title>
<path fill="none" stroke="black" d="M494,-359.76C494,-359.76 494,-262.09 494,-262.09"/>
<polygon fill="black" stroke="black" points="497.5,-262.09 494,-252.09 490.5,-262.09 497.5,-262.09"/>
<text text-anchor="middle" x="490" y="-314.73" font-family="Helvetica,Arial,sans-serif" font-size="14.00">1</text>
</g>
<!-- Text&#45;&gt;Node -->
<g id="edge11" class="edge">
<title>Text&#45;&gt;Node</title>
<path fill="none" stroke="black" d="M463.25,-359.83C463.25,-338.5 463.25,-306 463.25,-306 463.25,-306 285.26,-306 285.26,-306"/>
<polygon fill="black" stroke="black" points="285.26,-302.5 275.26,-306 285.26,-309.5 285.26,-302.5"/>
<text text-anchor="middle" x="396.17" y="-309.8" font-family="Helvetica,Arial,sans-serif" font-size="14.00">is</text>
</g>
<!-- ProcessingInstruction -->
<g id="node13" class="node">
<title>ProcessingInstruction</title>
<polygon fill="none" stroke="black" points="689,-396 543,-396 543,-360 689,-360 689,-396"/>
<text text-anchor="middle" x="616" y="-374.3" font-family="Helvetica,Arial,sans-serif" font-size="14.00">ProcessingInstruction</text>
</g>
<!-- ProcessingInstruction&#45;&gt;Content -->
<g id="edge16" class="edge">
<title>ProcessingInstruction&#45;&gt;Content</title>
<path fill="none" stroke="black" d="M573.67,-359.96C573.67,-322.55 573.67,-240 573.67,-240 573.67,-240 556.28,-240 556.28,-240"/>
<polygon fill="black" stroke="black" points="556.28,-236.5 546.28,-240 556.28,-243.5 556.28,-236.5"/>
<text text-anchor="middle" x="569.67" y="-295.09" font-family="Helvetica,Arial,sans-serif" font-size="14.00">1</text>
</g>
<!-- ProcessingInstruction&#45;&gt;Node -->
<g id="edge12" class="edge">
<title>ProcessingInstruction&#45;&gt;Node</title>
<path fill="none" stroke="black" d="M559.83,-359.62C559.83,-335.72 559.83,-297 559.83,-297 559.83,-297 285.13,-297 285.13,-297"/>
<polygon fill="black" stroke="black" points="285.13,-293.5 275.13,-297 285.13,-300.5 285.13,-293.5"/>
<text text-anchor="middle" x="448.79" y="-300.8" font-family="Helvetica,Arial,sans-serif" font-size="14.00">is</text>
</g>
<!-- Declaration -->
<g id="node14" class="node">
<title>Declaration</title>
<polygon fill="none" stroke="black" points="715.5,-36 630.5,-36 630.5,0 715.5,0 715.5,-36"/>
<text text-anchor="middle" x="673" y="-14.3" font-family="Helvetica,Arial,sans-serif" font-size="14.00">Declaration</text>
</g>
<!-- Declaration&#45;&gt;Content -->
<g id="edge17" class="edge">
<title>Declaration&#45;&gt;Content</title>
<path fill="none" stroke="black" d="M659.75,-36.27C659.75,-87.36 659.75,-228 659.75,-228 659.75,-228 556.35,-228 556.35,-228"/>
<polygon fill="black" stroke="black" points="556.35,-224.5 546.35,-228 556.35,-231.5 556.35,-224.5"/>
<text text-anchor="middle" x="638.75" y="-187.64" font-family="Helvetica,Arial,sans-serif" font-size="14.00">[has] 1</text>
</g>
<!-- DOCTYPE -->
<g id="node15" class="node">
<title>DOCTYPE</title>
<polygon fill="none" stroke="black" points="587.5,-36 504.5,-36 504.5,0 587.5,0 587.5,-36"/>
<text text-anchor="middle" x="546" y="-14.3" font-family="Helvetica,Arial,sans-serif" font-size="14.00">DOCTYPE</text>
</g>
<!-- DOCTYPE&#45;&gt;Content -->
<g id="edge18" class="edge">
<title>DOCTYPE&#45;&gt;Content</title>
<path fill="none" stroke="black" d="M525.25,-36.04C525.25,-36.04 525.25,-205.85 525.25,-205.85"/>
<polygon fill="black" stroke="black" points="521.75,-205.85 525.25,-215.85 528.75,-205.85 521.75,-205.85"/>
<text text-anchor="middle" x="521.25" y="-124.75" font-family="Helvetica,Arial,sans-serif" font-size="14.00">1</text>
</g>
<!-- Entity -->
<g id="node16" class="node">
<title>Entity</title>
<polygon fill="none" stroke="black" points="410,-36 356,-36 356,0 410,0 410,-36"/>
<text text-anchor="middle" x="383" y="-14.3" font-family="Helvetica,Arial,sans-serif" font-size="14.00">Entity</text>
</g>
<!-- Entity&#45;&gt;Node -->
<g id="edge20" class="edge">
<title>Entity&#45;&gt;Node</title>
<path fill="none" stroke="black" d="M355.89,-18C322.74,-18 271,-18 271,-18 271,-18 271,-277.98 271,-277.98"/>
<polygon fill="black" stroke="black" points="267.5,-277.98 271,-287.98 274.5,-277.98 267.5,-277.98"/>
<text text-anchor="middle" x="266" y="-109.35" font-family="Helvetica,Arial,sans-serif" font-size="14.00">is</text>
</g>
<!-- EntityCode -->
<g id="node17" class="node">
<title>EntityCode</title>
<polygon fill="none" stroke="black" points="480.5,-108 397.5,-108 397.5,-72 480.5,-72 480.5,-108"/>
<text text-anchor="middle" x="439" y="-86.3" font-family="Helvetica,Arial,sans-serif" font-size="14.00">EntityCode</text>
</g>
<!-- Entity&#45;&gt;EntityCode -->
<g id="edge19" class="edge">
<title>Entity&#45;&gt;EntityCode</title>
<path fill="none" stroke="black" d="M403.75,-36.17C403.75,-36.17 403.75,-61.59 403.75,-61.59"/>
<polygon fill="black" stroke="black" points="400.25,-61.59 403.75,-71.59 407.25,-61.59 400.25,-61.59"/>
<text text-anchor="middle" x="399.75" y="-52.68" font-family="Helvetica,Arial,sans-serif" font-size="14.00">1</text>
</g>
<!-- Tag -->
<g id="node18" class="node">
<title>Tag</title>
<polygon fill="none" stroke="black" points="178,-396 124,-396 124,-360 178,-360 178,-396"/>
<text text-anchor="middle" x="151" y="-374.3" font-family="Helvetica,Arial,sans-serif" font-size="14.00">Tag</text>
</g>
<!-- Tag&#45;&gt;Name -->
<g id="edge24" class="edge">
<title>Tag&#45;&gt;Name</title>
<path fill="none" stroke="black" d="M123.77,-387C112.14,-387 101.2,-387 101.2,-387 101.2,-387 101.2,-190.03 101.2,-190.03"/>
<polygon fill="black" stroke="black" points="104.7,-190.03 101.2,-180.03 97.7,-190.03 104.7,-190.03"/>
<text text-anchor="middle" x="97.2" y="-303.6" font-family="Helvetica,Arial,sans-serif" font-size="14.00">1</text>
</g>
<!-- Tag&#45;&gt;Attribute -->
<g id="edge22" class="edge">
<title>Tag&#45;&gt;Attribute</title>
<path fill="none" stroke="black" d="M141.25,-359.73C141.25,-341.44 141.25,-316 141.25,-316 141.25,-316 96.25,-316 96.25,-316"/>
<polygon fill="black" stroke="black" points="96.25,-312.5 86.25,-316 96.25,-319.5 96.25,-312.5"/>
<text text-anchor="middle" x="128.12" y="-319.8" font-family="Helvetica,Arial,sans-serif" font-size="14.00">0..A</text>
</g>
<!-- Tag&#45;&gt;Node -->
<g id="edge21" class="edge">
<title>Tag&#45;&gt;Node</title>
<path fill="none" stroke="black" d="M165.75,-359.87C165.75,-339.43 165.75,-309 165.75,-309 165.75,-309 210.61,-309 210.61,-309"/>
<polygon fill="black" stroke="black" points="210.61,-312.5 220.61,-309 210.61,-305.5 210.61,-312.5"/>
<text text-anchor="middle" x="160.75" y="-315.8" font-family="Helvetica,Arial,sans-serif" font-size="14.00">is</text>
</g>
<!-- Tag&#45;&gt;Node -->
<g id="edge23" class="edge">
<title>Tag&#45;&gt;Node</title>
<path fill="none" stroke="black" d="M153.5,-359.99C153.5,-337.51 153.5,-302 153.5,-302 153.5,-302 210.92,-302 210.92,-302"/>
<polygon fill="black" stroke="black" points="210.92,-305.5 220.92,-302 210.92,-298.5 210.92,-305.5"/>
<text text-anchor="middle" x="141" y="-291.08" font-family="Helvetica,Arial,sans-serif" font-size="14.00">0..C</text>
</g>
<!-- EmptyTag -->
<g id="node19" class="node">
<title>EmptyTag</title>
<polygon fill="none" stroke="black" points="81,-396 3,-396 3,-360 81,-360 81,-396"/>
<text text-anchor="middle" x="42" y="-374.3" font-family="Helvetica,Arial,sans-serif" font-size="14.00">EmptyTag</text>
</g>
<!-- EmptyTag&#45;&gt;Name -->
<g id="edge27" class="edge">
<title>EmptyTag&#45;&gt;Name</title>
<path fill="none" stroke="black" d="M81.11,-369C88.31,-369 93.6,-369 93.6,-369 93.6,-369 93.6,-190.01 93.6,-190.01"/>
<polygon fill="black" stroke="black" points="97.1,-190.01 93.6,-180.01 90.1,-190.01 97.1,-190.01"/>
<text text-anchor="middle" x="89.6" y="-289.55" font-family="Helvetica,Arial,sans-serif" font-size="14.00">1</text>
</g>
<!-- EmptyTag&#45;&gt;Attribute -->
<g id="edge26" class="edge">
<title>EmptyTag&#45;&gt;Attribute</title>
<path fill="none" stroke="black" d="M49.5,-359.83C49.5,-359.83 49.5,-334.41 49.5,-334.41"/>
<polygon fill="black" stroke="black" points="53,-334.41 49.5,-324.41 46,-334.41 53,-334.41"/>
<text text-anchor="middle" x="37" y="-335.92" font-family="Helvetica,Arial,sans-serif" font-size="14.00">0..A</text>
</g>
<!-- EmptyTag&#45;&gt;Node -->
<g id="edge25" class="edge">
<title>EmptyTag&#45;&gt;Node</title>
<path fill="none" stroke="black" d="M81.24,-378C95.78,-378 108.8,-378 108.8,-378 108.8,-378 108.8,-295 108.8,-295 108.8,-295 210.83,-295 210.83,-295"/>
<polygon fill="black" stroke="black" points="210.83,-298.5 220.83,-295 210.83,-291.5 210.83,-298.5"/>
<text text-anchor="middle" x="103.8" y="-288.06" font-family="Helvetica,Arial,sans-serif" font-size="14.00">is</text>
</g>
</g>
</svg>
