<?xml version="1.0" encoding="UTF-8" standalone="no"?>
<!DOCTYPE svg PUBLIC "-//W3C//DTD SVG 1.1//EN"
 "http://www.w3.org/Graphics/SVG/1.1/DTD/svg11.dtd">
<!-- Generated by graphviz version 2.42.4 (0)
 -->
<!-- Title: model_graph Pages: 1 -->
<svg width="715pt" height="584pt"
 viewBox="0.00 0.00 715.00 584.00" xmlns="http://www.w3.org/2000/svg" xmlns:xlink="http://www.w3.org/1999/xlink">
<g id="graph0" class="graph" transform="scale(1 1) rotate(0) translate(4 580)">
<title>model_graph</title>
<polygon fill="white" stroke="transparent" points="-4,4 -4,-580 711,-580 711,4 -4,4"/>
<!-- Name -->
<g id="node1" class="node">
<title>Name</title>
<polygon fill="none" stroke="black" points="601,-252 547,-252 547,-216 601,-216 601,-252"/>
<text text-anchor="middle" x="574" y="-230.3" font-family="Helvetica,Arial,sans-serif" font-size="14.00">Name</text>
</g>
<!-- LocalName -->
<g id="node2" class="node">
<title>LocalName</title>
<polygon fill="none" stroke="black" points="617,-144 531,-144 531,-108 617,-108 617,-144"/>
<text text-anchor="middle" x="574" y="-122.3" font-family="Helvetica,Arial,sans-serif" font-size="14.00">LocalName</text>
</g>
<!-- Name&#45;&gt;LocalName -->
<g id="edge1" class="edge">
<title>Name&#45;&gt;LocalName</title>
<path fill="none" stroke="black" d="M574,-215.68C574,-215.68 574,-154.05 574,-154.05"/>
<polygon fill="black" stroke="black" points="577.5,-154.05 574,-144.05 570.5,-154.05 577.5,-154.05"/>
<text text-anchor="middle" x="570" y="-188.66" font-family="Helvetica,Arial,sans-serif" font-size="14.00">1</text>
</g>
<!-- Prefix -->
<g id="node3" class="node">
<title>Prefix</title>
<polygon fill="none" stroke="black" points="707,-144 653,-144 653,-108 707,-108 707,-144"/>
<text text-anchor="middle" x="680" y="-122.3" font-family="Helvetica,Arial,sans-serif" font-size="14.00">Prefix</text>
</g>
<!-- Name&#45;&gt;Prefix -->
<g id="edge2" class="edge">
<title>Name&#45;&gt;Prefix</title>
<path fill="none" stroke="black" d="M601.02,-228C632.43,-228 680,-228 680,-228 680,-228 680,-154.24 680,-154.24"/>
<polygon fill="black" stroke="black" points="683.5,-154.24 680,-144.24 676.5,-154.24 683.5,-154.24"/>
<text text-anchor="middle" x="667.89" y="-231.8" font-family="Helvetica,Arial,sans-serif" font-size="14.00">0/1</text>
</g>
<!-- NS -->
<g id="node4" class="node">
<title>NS</title>
<polygon fill="none" stroke="black" points="707,-36 653,-36 653,0 707,0 707,-36"/>
<text text-anchor="middle" x="680" y="-14.3" font-family="Helvetica,Arial,sans-serif" font-size="14.00">NS</text>
</g>
<!-- Prefix&#45;&gt;NS -->
<g id="edge3" class="edge">
<title>Prefix&#45;&gt;NS</title>
<path fill="none" stroke="black" d="M680,-107.68C680,-107.68 680,-46.05 680,-46.05"/>
<polygon fill="black" stroke="black" points="683.5,-46.05 680,-36.05 676.5,-46.05 683.5,-46.05"/>
<text text-anchor="middle" x="651" y="-80.66" font-family="Helvetica,Arial,sans-serif" font-size="14.00">refers 0/1</text>
</g>
<!-- Dir -->
<g id="node5" class="node">
<title>Dir</title>
<polygon fill="none" stroke="black" points="480,-360 426,-360 426,-324 480,-324 480,-360"/>
<text text-anchor="middle" x="453" y="-338.3" font-family="Helvetica,Arial,sans-serif" font-size="14.00">Dir</text>
</g>
<!-- Dir&#45;&gt;Name -->
<g id="edge4" class="edge">
<title>Dir&#45;&gt;Name</title>
<path fill="none" stroke="black" d="M480.04,-342C509.05,-342 551,-342 551,-342 551,-342 551,-262.32 551,-262.32"/>
<polygon fill="black" stroke="black" points="554.5,-262.32 551,-252.32 547.5,-262.32 554.5,-262.32"/>
<text text-anchor="middle" x="538.5" y="-341.44" font-family="Helvetica,Arial,sans-serif" font-size="14.00">1..N</text>
</g>
<!-- Depth -->
<g id="node6" class="node">
<title>Depth</title>
<polygon fill="none" stroke="black" points="480,-252 426,-252 426,-216 480,-216 480,-252"/>
<text text-anchor="middle" x="453" y="-230.3" font-family="Helvetica,Arial,sans-serif" font-size="14.00">Depth</text>
</g>
<!-- Dir&#45;&gt;Depth -->
<g id="edge5" class="edge">
<title>Dir&#45;&gt;Depth</title>
<path fill="none" stroke="black" d="M453,-323.68C453,-323.68 453,-262.05 453,-262.05"/>
<polygon fill="black" stroke="black" points="456.5,-262.05 453,-252.05 449.5,-262.05 456.5,-262.05"/>
<text text-anchor="middle" x="449" y="-296.66" font-family="Helvetica,Arial,sans-serif" font-size="14.00">1</text>
</g>
<!-- Attribute -->
<g id="node7" class="node">
<title>Attribute</title>
<polygon fill="none" stroke="black" points="559,-468 491,-468 491,-432 559,-432 559,-468"/>
<text text-anchor="middle" x="525" y="-446.3" font-family="Helvetica,Arial,sans-serif" font-size="14.00">Attribute</text>
</g>
<!-- Attribute&#45;&gt;Name -->
<g id="edge6" class="edge">
<title>Attribute&#45;&gt;Name</title>
<path fill="none" stroke="black" d="M555,-431.96C555,-431.96 555,-262.15 555,-262.15"/>
<polygon fill="black" stroke="black" points="558.5,-262.15 555,-252.15 551.5,-262.15 558.5,-262.15"/>
<text text-anchor="middle" x="559" y="-350.85" font-family="Helvetica,Arial,sans-serif" font-size="14.00">1</text>
</g>
<!-- Content -->
<g id="node8" class="node">
<title>Content</title>
<polygon fill="none" stroke="black" points="287,-360 223,-360 223,-324 287,-324 287,-360"/>
<text text-anchor="middle" x="255" y="-338.3" font-family="Helvetica,Arial,sans-serif" font-size="14.00">Content</text>
</g>
<!-- Attribute&#45;&gt;Content -->
<g id="edge7" class="edge">
<title>Attribute&#45;&gt;Content</title>
<path fill="none" stroke="black" d="M512.75,-431.72C512.75,-416.05 512.75,-396 512.75,-396 512.75,-396 282.17,-396 282.17,-396 282.17,-396 282.17,-370.28 282.17,-370.28"/>
<polygon fill="black" stroke="black" points="285.67,-370.28 282.17,-360.28 278.67,-370.28 285.67,-370.28"/>
<text text-anchor="middle" x="398.46" y="-399.8" font-family="Helvetica,Arial,sans-serif" font-size="14.00">1</text>
</g>
<!-- Node -->
<g id="node9" class="node">
<title>Node</title>
<polygon fill="none" stroke="black" points="438,-468 384,-468 384,-432 438,-432 438,-468"/>
<text text-anchor="middle" x="411" y="-446.3" font-family="Helvetica,Arial,sans-serif" font-size="14.00">Node</text>
</g>
<!-- Node&#45;&gt;Dir -->
<g id="edge8" class="edge">
<title>Node&#45;&gt;Dir</title>
<path fill="none" stroke="black" d="M432,-431.68C432,-431.68 432,-370.05 432,-370.05"/>
<polygon fill="black" stroke="black" points="435.5,-370.05 432,-360.05 428.5,-370.05 435.5,-370.05"/>
<text text-anchor="middle" x="421" y="-404.66" font-family="Helvetica,Arial,sans-serif" font-size="14.00">in 1</text>
</g>
<!-- CDATA -->
<g id="node10" class="node">
<title>CDATA</title>
<polygon fill="none" stroke="black" points="333.5,-576 272.5,-576 272.5,-540 333.5,-540 333.5,-576"/>
<text text-anchor="middle" x="303" y="-554.3" font-family="Helvetica,Arial,sans-serif" font-size="14.00">CDATA</text>
</g>
<!-- CDATA&#45;&gt;Content -->
<g id="edge13" class="edge">
<title>CDATA&#45;&gt;Content</title>
<path fill="none" stroke="black" d="M277.33,-539.96C277.33,-539.96 277.33,-370.15 277.33,-370.15"/>
<polygon fill="black" stroke="black" points="280.83,-370.15 277.33,-360.15 273.83,-370.15 280.83,-370.15"/>
<text text-anchor="middle" x="267.83" y="-458.85" font-family="Helvetica,Arial,sans-serif" font-size="14.00">0/1</text>
</g>
<!-- CDATA&#45;&gt;Node -->
<g id="edge9" class="edge">
<title>CDATA&#45;&gt;Node</title>
<path fill="none" stroke="black" d="M317,-539.84C317,-511.26 317,-459 317,-459 317,-459 373.81,-459 373.81,-459"/>
<polygon fill="black" stroke="black" points="373.81,-462.5 383.81,-459 373.81,-455.5 373.81,-462.5"/>
<text text-anchor="middle" x="312" y="-474.82" font-family="Helvetica,Arial,sans-serif" font-size="14.00">is</text>
</g>
<!-- Comment -->
<g id="node11" class="node">
<title>Comment</title>
<polygon fill="none" stroke="black" points="446.5,-576 369.5,-576 369.5,-540 446.5,-540 446.5,-576"/>
<text text-anchor="middle" x="408" y="-554.3" font-family="Helvetica,Arial,sans-serif" font-size="14.00">Comment</text>
</g>
<!-- Comment&#45;&gt;Content -->
<g id="edge14" class="edge">
<title>Comment&#45;&gt;Content</title>
<path fill="none" stroke="black" d="M376.75,-539.96C376.75,-488.04 376.75,-342 376.75,-342 376.75,-342 297.31,-342 297.31,-342"/>
<polygon fill="black" stroke="black" points="297.31,-338.5 287.31,-342 297.31,-345.5 297.31,-338.5"/>
<text text-anchor="middle" x="367.25" y="-405.06" font-family="Helvetica,Arial,sans-serif" font-size="14.00">0/1</text>
</g>
<!-- Comment&#45;&gt;Node -->
<g id="edge10" class="edge">
<title>Comment&#45;&gt;Node</title>
<path fill="none" stroke="black" d="M397.5,-539.68C397.5,-539.68 397.5,-478.05 397.5,-478.05"/>
<polygon fill="black" stroke="black" points="401,-478.05 397.5,-468.05 394,-478.05 401,-478.05"/>
<text text-anchor="middle" x="392.5" y="-512.66" font-family="Helvetica,Arial,sans-serif" font-size="14.00">is</text>
</g>
<!-- Text -->
<g id="node12" class="node">
<title>Text</title>
<polygon fill="none" stroke="black" points="54,-576 0,-576 0,-540 54,-540 54,-576"/>
<text text-anchor="middle" x="27" y="-554.3" font-family="Helvetica,Arial,sans-serif" font-size="14.00">Text</text>
</g>
<!-- Text&#45;&gt;Content -->
<g id="edge15" class="edge">
<title>Text&#45;&gt;Content</title>
<path fill="none" stroke="black" d="M18,-539.73C18,-488.64 18,-348 18,-348 18,-348 212.54,-348 212.54,-348"/>
<polygon fill="black" stroke="black" points="212.54,-351.5 222.54,-348 212.54,-344.5 212.54,-351.5"/>
<text text-anchor="middle" x="15.41" y="-351.8" font-family="Helvetica,Arial,sans-serif" font-size="14.00">1</text>
</g>
<!-- Text&#45;&gt;Node -->
<g id="edge11" class="edge">
<title>Text&#45;&gt;Node</title>
<path fill="none" stroke="black" d="M36,-539.98C36,-507.16 36,-441 36,-441 36,-441 373.73,-441 373.73,-441"/>
<polygon fill="black" stroke="black" points="373.73,-444.5 383.73,-441 373.73,-437.5 373.73,-444.5"/>
<text text-anchor="middle" x="150.38" y="-444.8" font-family="Helvetica,Arial,sans-serif" font-size="14.00">is</text>
</g>
<!-- ProcessingInstruction -->
<g id="node13" class="node">
<title>ProcessingInstruction</title>
<polygon fill="none" stroke="black" points="236,-576 90,-576 90,-540 236,-540 236,-576"/>
<text text-anchor="middle" x="163" y="-554.3" font-family="Helvetica,Arial,sans-serif" font-size="14.00">ProcessingInstruction</text>
</g>
<!-- ProcessingInstruction&#45;&gt;Content -->
<g id="edge16" class="edge">
<title>ProcessingInstruction&#45;&gt;Content</title>
<path fill="none" stroke="black" d="M227.33,-539.96C227.33,-539.96 227.33,-370.15 227.33,-370.15"/>
<polygon fill="black" stroke="black" points="230.83,-370.15 227.33,-360.15 223.83,-370.15 230.83,-370.15"/>
<text text-anchor="middle" x="223.33" y="-458.85" font-family="Helvetica,Arial,sans-serif" font-size="14.00">1</text>
</g>
<!-- ProcessingInstruction&#45;&gt;Node -->
<g id="edge12" class="edge">
<title>ProcessingInstruction&#45;&gt;Node</title>
<path fill="none" stroke="black" d="M231.67,-539.68C231.67,-508.87 231.67,-450 231.67,-450 231.67,-450 373.76,-450 373.76,-450"/>
<polygon fill="black" stroke="black" points="373.76,-453.5 383.76,-450 373.76,-446.5 373.76,-453.5"/>
<text text-anchor="middle" x="252.88" y="-453.8" font-family="Helvetica,Arial,sans-serif" font-size="14.00">is</text>
</g>
<!-- Declaration -->
<g id="node14" class="node">
<title>Declaration</title>
<polygon fill="none" stroke="black" points="181.5,-36 96.5,-36 96.5,0 181.5,0 181.5,-36"/>
<text text-anchor="middle" x="139" y="-14.3" font-family="Helvetica,Arial,sans-serif" font-size="14.00">Declaration</text>
</g>
<!-- Declaration&#45;&gt;Content -->
<g id="edge17" class="edge">
<title>Declaration&#45;&gt;Content</title>
<path fill="none" stroke="black" d="M139,-36.01C139,-103.28 139,-336 139,-336 139,-336 213,-336 213,-336"/>
<polygon fill="black" stroke="black" points="213,-339.5 223,-336 213,-332.5 213,-339.5"/>
<text text-anchor="middle" x="118" y="-226.8" font-family="Helvetica,Arial,sans-serif" font-size="14.00">[has] 1</text>
</g>
<!-- DOCTYPE -->
<g id="node15" class="node">
<title>DOCTYPE</title>
<polygon fill="none" stroke="black" points="300.5,-36 217.5,-36 217.5,0 300.5,0 300.5,-36"/>
<text text-anchor="middle" x="259" y="-14.3" font-family="Helvetica,Arial,sans-serif" font-size="14.00">DOCTYPE</text>
</g>
<!-- DOCTYPE&#45;&gt;Content -->
<g id="edge18" class="edge">
<title>DOCTYPE&#45;&gt;Content</title>
<path fill="none" stroke="black" d="M255,-36.35C255,-36.35 255,-313.85 255,-313.85"/>
<polygon fill="black" stroke="black" points="251.5,-313.85 255,-323.85 258.5,-313.85 251.5,-313.85"/>
<text text-anchor="middle" x="251" y="-178.9" font-family="Helvetica,Arial,sans-serif" font-size="14.00">1</text>
</g>
<!-- Entity -->
<g id="node16" class="node">
<title>Entity</title>
<polygon fill="none" stroke="black" points="447,-36 393,-36 393,0 447,0 447,-36"/>
<text text-anchor="middle" x="420" y="-14.3" font-family="Helvetica,Arial,sans-serif" font-size="14.00">Entity</text>
</g>
<!-- Entity&#45;&gt;Node -->
<g id="edge20" class="edge">
<title>Entity&#45;&gt;Node</title>
<path fill="none" stroke="black" d="M402.25,-36.01C402.25,-36.01 402.25,-421.91 402.25,-421.91"/>
<polygon fill="black" stroke="black" points="398.75,-421.91 402.25,-431.91 405.75,-421.91 398.75,-421.91"/>
<text text-anchor="middle" x="397.25" y="-232.76" font-family="Helvetica,Arial,sans-serif" font-size="14.00">is</text>
</g>
<!-- EntityCode -->
<g id="node17" class="node">
<title>EntityCode</title>
<polygon fill="none" stroke="black" points="494.5,-144 411.5,-144 411.5,-108 494.5,-108 494.5,-144"/>
<text text-anchor="middle" x="453" y="-122.3" font-family="Helvetica,Arial,sans-serif" font-size="14.00">EntityCode</text>
</g>
<!-- Entity&#45;&gt;EntityCode -->
<g id="edge19" class="edge">
<title>Entity&#45;&gt;EntityCode</title>
<path fill="none" stroke="black" d="M429.25,-36.32C429.25,-36.32 429.25,-97.95 429.25,-97.95"/>
<polygon fill="black" stroke="black" points="425.75,-97.95 429.25,-107.95 432.75,-97.95 425.75,-97.95"/>
<text text-anchor="middle" x="425.25" y="-70.94" font-family="Helvetica,Arial,sans-serif" font-size="14.00">1</text>
</g>
<!-- Tag -->
<g id="node18" class="node">
<title>Tag</title>
<polygon fill="none" stroke="black" points="651,-576 597,-576 597,-540 651,-540 651,-576"/>
<text text-anchor="middle" x="624" y="-554.3" font-family="Helvetica,Arial,sans-serif" font-size="14.00">Tag</text>
</g>
<!-- Tag&#45;&gt;Name -->
<g id="edge24" class="edge">
<title>Tag&#45;&gt;Name</title>
<path fill="none" stroke="black" d="M613.8,-539.99C613.8,-472.72 613.8,-240 613.8,-240 613.8,-240 611.21,-240 611.21,-240"/>
<polygon fill="black" stroke="black" points="611.21,-236.5 601.21,-240 611.21,-243.5 611.21,-236.5"/>
<text text-anchor="middle" x="609.8" y="-392.5" font-family="Helvetica,Arial,sans-serif" font-size="14.00">1</text>
</g>
<!-- Tag&#45;&gt;Attribute -->
<g id="edge22" class="edge">
<title>Tag&#45;&gt;Attribute</title>
<path fill="none" stroke="black" d="M610.6,-539.68C610.6,-508.87 610.6,-450 610.6,-450 610.6,-450 569.32,-450 569.32,-450"/>
<polygon fill="black" stroke="black" points="569.32,-446.5 559.32,-450 569.32,-453.5 569.32,-446.5"/>
<text text-anchor="middle" x="598.1" y="-478" font-family="Helvetica,Arial,sans-serif" font-size="14.00">0..A</text>
</g>
<!-- Tag&#45;&gt;Node -->
<g id="edge21" class="edge">
<title>Tag&#45;&gt;Node</title>
<path fill="none" stroke="black" d="M604.2,-539.94C604.2,-528.56 604.2,-516 604.2,-516 604.2,-516 411,-516 411,-516 411,-516 411,-478.03 411,-478.03"/>
<polygon fill="black" stroke="black" points="414.5,-478.03 411,-468.03 407.5,-478.03 414.5,-478.03"/>
<text text-anchor="middle" x="495.59" y="-519.8" font-family="Helvetica,Arial,sans-serif" font-size="14.00">is</text>
</g>
<!-- Tag&#45;&gt;Node -->
<g id="edge23" class="edge">
<title>Tag&#45;&gt;Node</title>
<path fill="none" stroke="black" d="M607.4,-539.97C607.4,-520.42 607.4,-492 607.4,-492 607.4,-492 424.5,-492 424.5,-492 424.5,-492 424.5,-478.06 424.5,-478.06"/>
<polygon fill="black" stroke="black" points="428,-478.06 424.5,-468.06 421,-478.06 428,-478.06"/>
<text text-anchor="middle" x="520.46" y="-495.8" font-family="Helvetica,Arial,sans-serif" font-size="14.00">0..C</text>
</g>
<!-- EmptyTag -->
<g id="node19" class="node">
<title>EmptyTag</title>
<polygon fill="none" stroke="black" points="561,-576 483,-576 483,-540 561,-540 561,-576"/>
<text text-anchor="middle" x="522" y="-554.3" font-family="Helvetica,Arial,sans-serif" font-size="14.00">EmptyTag</text>
</g>
<!-- EmptyTag&#45;&gt;Attribute -->
<g id="edge26" class="edge">
<title>EmptyTag&#45;&gt;Attribute</title>
<path fill="none" stroke="black" d="M525,-539.68C525,-539.68 525,-478.05 525,-478.05"/>
<polygon fill="black" stroke="black" points="528.5,-478.05 525,-468.05 521.5,-478.05 528.5,-478.05"/>
<text text-anchor="middle" x="537.5" y="-512.66" font-family="Helvetica,Arial,sans-serif" font-size="14.00">0..A</text>
</g>
<!-- EmptyTag&#45;&gt;Node -->
<g id="edge25" class="edge">
<title>EmptyTag&#45;&gt;Node</title>
<path fill="none" stroke="black" d="M487,-539.68C487,-508.87 487,-450 487,-450 487,-450 448.01,-450 448.01,-450"/>
<polygon fill="black" stroke="black" points="448.01,-446.5 438.01,-450 448.01,-453.5 448.01,-446.5"/>
<text text-anchor="middle" x="482" y="-479.14" font-family="Helvetica,Arial,sans-serif" font-size="14.00">is</text>
</g>
</g>
</svg>
